<?xml version="1.0" standalone="no"?>
<!DOCTYPE svg PUBLIC "-//W3C//DTD SVG 20010904//EN"
 "http://www.w3.org/TR/2001/REC-SVG-20010904/DTD/svg10.dtd">
<svg version="1.0" xmlns="http://www.w3.org/2000/svg"
 width="512.000000pt" height="512.000000pt" viewBox="0 0 512.000000 512.000000"
 preserveAspectRatio="xMidYMid meet">
<metadata>
Created by potrace 1.11, written by Peter Selinger 2001-2013
</metadata>
<g transform="translate(0.000000,512.000000) scale(0.100000,-0.100000)"
fill="#000000" stroke="none">
<path d="M2379 5116 c-2 -2 -35 -6 -74 -10 -253 -22 -559 -104 -800 -214 -831
-378 -1399 -1166 -1493 -2072 -14 -140 -7 -504 12 -615 3 -16 8 -43 10 -60 23
-166 95 -413 174 -595 62 -144 179 -359 195 -360 12 0 365 212 573 346 244
155 674 447 769 521 6 5 79 60 164 123 85 63 180 135 211 160 32 25 74 59 96
75 21 17 70 56 108 88 39 33 91 75 116 95 24 21 90 77 147 126 89 77 101 91
91 105 -17 21 -171 205 -178 211 -16 16 -159 190 -177 215 -47 68 -45 143 5
172 24 14 131 35 297 58 66 9 131 18 145 20 14 2 45 6 70 9 57 7 95 13 190 27
41 6 89 12 105 14 17 3 80 11 140 20 61 8 128 18 150 21 41 5 58 8 135 19 82
12 94 14 180 26 180 25 241 17 276 -35 29 -45 18 -103 -66 -373 -45 -142 -94
-298 -110 -348 -16 -49 -45 -142 -65 -205 -20 -63 -41 -131 -47 -150 -5 -19
-18 -60 -28 -90 -10 -30 -42 -129 -70 -218 -28 -90 -59 -178 -69 -195 -46 -83
-112 -86 -189 -9 -48 47 -66 68 -157 177 -27 33 -52 62 -55 65 -3 3 -39 44
-79 93 -40 48 -77 87 -81 87 -5 0 -15 -6 -22 -13 -12 -12 -124 -108 -178 -153
-54 -46 -118 -100 -136 -114 -11 -8 -42 -34 -69 -56 -28 -23 -126 -100 -220
-173 -93 -72 -174 -134 -180 -139 -5 -4 -75 -55 -155 -113 -344 -250 -742
-514 -1123 -745 l-219 -133 54 -53 c240 -235 482 -399 808 -546 93 -42 350
-122 470 -146 216 -43 287 -50 525 -51 217 0 307 8 480 41 44 8 91 18 105 20
130 25 389 118 552 199 639 319 1108 871 1317 1550 78 254 105 448 106 740 0
193 -3 251 -16 330 -4 28 -10 66 -13 85 -2 19 -10 60 -16 90 -6 30 -14 66 -16
80 -3 14 -16 64 -30 112 -164 584 -526 1085 -1036 1432 -54 36 -101 66 -105
66 -3 0 -14 6 -22 14 -23 20 -263 139 -351 174 -86 34 -226 80 -260 87 -12 2
-37 9 -54 14 -40 13 -217 48 -281 56 -27 4 -61 9 -75 11 -28 6 -456 15 -461
10z"/>
</g>
</svg>
