<?xml version="1.0" standalone="no"?>
<!DOCTYPE svg PUBLIC "-//W3C//DTD SVG 20010904//EN"
 "http://www.w3.org/TR/2001/REC-SVG-20010904/DTD/svg10.dtd">
<svg version="1.0" xmlns="http://www.w3.org/2000/svg"
 width="512.000000pt" height="512.000000pt" viewBox="0 0 512.000000 512.000000"
 preserveAspectRatio="xMidYMid meet">
<metadata>
Created by potrace 1.11, written by Peter Selinger 2001-2013
</metadata>
<g transform="translate(0.000000,512.000000) scale(0.100000,-0.100000)"
fill="#000000" stroke="none">
<path d="M2379 5116 c-2 -2 -35 -6 -74 -10 -253 -22 -559 -104 -800 -214 -831
-378 -1399 -1166 -1493 -2072 -14 -140 -7 -504 12 -615 3 -16 8 -43 10 -60 22
-158 102 -434 171 -590 35 -79 127 -261 152 -303 l20 -32 154 96 c400 249
1082 721 1324 916 6 5 84 67 175 140 91 72 190 151 220 177 30 25 57 46 59 48
5 3 -21 36 -139 175 -239 282 -270 321 -282 362 -7 23 -11 52 -10 65 3 46 54
82 137 95 33 5 227 33 290 42 64 9 94 13 205 29 58 8 126 17 151 20 26 3 57 8
70 10 25 5 29 6 214 30 66 9 134 18 150 20 17 3 75 11 130 19 55 8 123 18 150
21 28 4 61 8 75 11 174 28 258 27 300 -4 63 -47 64 -105 6 -289 -24 -76 -67
-212 -96 -303 -58 -188 -155 -495 -205 -650 -18 -58 -54 -172 -80 -255 -69
-220 -74 -236 -97 -276 -22 -40 -64 -69 -101 -69 -25 0 -90 39 -117 70 -8 10
-73 87 -145 171 -71 85 -134 159 -140 165 -17 19 -99 117 -110 131 -8 10 -22
3 -65 -35 -31 -26 -101 -83 -155 -127 -55 -44 -102 -82 -105 -85 -32 -34 -619
-469 -796 -590 -203 -139 -554 -371 -681 -450 -84 -52 -153 -99 -153 -104 0
-18 185 -185 310 -280 156 -117 351 -231 535 -311 22 -9 49 -21 60 -26 67 -30
309 -101 415 -123 216 -43 287 -50 525 -51 217 0 307 8 480 41 44 8 91 18 105
20 130 25 389 118 552 199 639 319 1108 871 1317 1550 78 254 105 448 106 740
0 193 -3 251 -16 330 -4 28 -10 66 -13 85 -2 19 -10 60 -16 90 -6 30 -14 66
-16 80 -3 14 -16 64 -30 112 -164 584 -526 1085 -1036 1432 -54 36 -101 66
-105 66 -3 0 -14 6 -22 14 -23 20 -263 139 -351 174 -86 34 -226 80 -260 87
-12 2 -37 9 -54 14 -40 13 -217 48 -281 56 -27 4 -61 9 -75 11 -28 6 -456 15
-461 10z"/>
</g>
</svg>
