<svg xmlns="http://www.w3.org/2000/svg" width="62" height="72.592" viewBox="0 0 62 72.592"><path d="M1670.245,118.558h14.874c0,1.67-.369,4.839,2.5,4.839h16.91c2.871,0,2.5-3.172,2.5-4.839h14.874v58.075h-51.667Zm20.042-4.839h11.586v4.839h-11.586Zm-5.167-1.966v1.966h-17.535c-1.653,0-2.5,1.293-2.5,2.873V178.6c0,1.616.842,2.873,2.5,2.873h56.99c1.663,0,2.5-1.258,2.5-2.873V116.592a3.34,3.34,0,0,0-.593-2,2.515,2.515,0,0,0-1.912-.875H1707.04c0-1.67.369-4.839-2.5-4.839h-16.91C1685.972,108.88,1685.12,110.173,1685.12,111.753Z" transform="translate(-1665.08 -108.88)" fill="#cbcbcb" fill-rule="evenodd"/><path d="M1846.692,256.414h18.57c2.757,0,2.757-4.244,0-4.244h-18.57C1843.954,252.17,1843.908,256.414,1846.692,256.414Z" transform="translate(-1816.589 -232.643)" fill="#cbcbcb" fill-rule="evenodd"/><path d="M1846.692,399.7h18.57c2.757,0,2.757-4.244,0-4.244h-18.57C1843.908,395.46,1843.954,399.7,1846.692,399.7Z" transform="translate(-1816.589 -356.406)" fill="#cbcbcb" fill-rule="evenodd"/><path d="M1846.709,328.064h18.57c2.784,0,2.738-4.244,0-4.244h-18.57C1843.95,323.82,1843.95,328.064,1846.709,328.064Z" transform="translate(-1816.604 -294.528)" fill="#cbcbcb" fill-rule="evenodd"/><path d="M1885.718,484.614a10.371,10.371,0,0,0-1.166-1.885c-1.492-2.26-3.859-1.321-4.208.5-.194,1.013.637,1.973,1.076,2.63.895,1.342,2.334,4.058,3.634,4.058,1.572,0,1.8-.66,3.392-1.914l5.2-4.35c1.359-1.185,2.285-1.432,2.285-3.021a2.092,2.092,0,0,0-2.337-2.077c-1.142.154-3.051,2.114-4.011,2.891l-3.865,3.165Z" transform="translate(-1848.267 -425.817)" fill="#cbcbcb" fill-rule="evenodd"/><path d="M1739.222,328.064h4.642c2.4,0,2.4-4.244,0-4.244h-4.642C1736.438,323.82,1736.484,328.064,1739.222,328.064Z" transform="translate(-1726.773 -294.528)" fill="#cbcbcb" fill-rule="evenodd"/><path d="M1739.239,256.414h4.642c2.4,0,2.4-4.244,0-4.244h-4.642C1736.48,252.17,1736.48,256.414,1739.239,256.414Z" transform="translate(-1726.79 -232.643)" fill="#cbcbcb" fill-rule="evenodd"/><path d="M1739.239,399.7h4.642c2.4,0,2.4-4.244,0-4.244h-4.642C1736.48,395.46,1736.48,399.7,1739.239,399.7Z" transform="translate(-1726.79 -356.406)" fill="#cbcbcb" fill-rule="evenodd"/></svg>