<svg xmlns="http://www.w3.org/2000/svg" width="69.859" height="81.518" viewBox="0 0 69.859 81.518"><path d="M936.6,109.973a5.265,5.265,0,0,1,.364-1.818c3.987-.929,42.478-.364,49.8-.364a5.265,5.265,0,0,1,1.818.364c.536,2.3.536,1.334,0,3.635-3.987.929-42.478.364-49.8.364a5.265,5.265,0,0,1-1.818-.364,5.265,5.265,0,0,1-.364-1.818Zm21.811-47.257h8.724v42.168h-8.724V62.717Zm-13.087,26.9c0-3.879-.423-11.526.364-14.9,3.051-.711,6.64-.364,9.815-.364V91.8c-3.175,0-6.764.347-9.815-.364a5.265,5.265,0,0,1-.364-1.818ZM984.578,91.8H970.038V74.349h14.9c1.392,0,5.593,5.657,9.088,8-.655.979-8.223,9.452-9.452,9.452Zm-53.073-41.44c3.089-2.068,7.826-8,9.088-8,6.315,0,35.415-.532,39.259.364.664,2.847.664,13.873,0,16.721-3.839.895-32.617.364-38.9.364-1.175,0-4.084-3.545-5-4.453l-4.453-5Zm27.264-13.449a18.58,18.58,0,0,1,8,0,7.377,7.377,0,0,1,.364,2.544h-8.724a7.374,7.374,0,0,1,.364-2.544Zm-3.271,0v2.544c-19.994,0-15.262-1.665-22.079,5.185-1.679,1.687-5.549,4.081-5.549,6.084,0,.629,3.111,3.906,3.91,4.814l5.943,6.052c.651.737.609,1.129,2.142,1.129H955.5v8.724h-9.815c-1.129,0-3.271,2.143-3.271,3.271V90.706c0,5.325,7.415,4,13.087,4v10.178H937.684a4.9,4.9,0,0,0-2.832,1.166c-1.665,1.5-1.517,6.27-.187,7.67a4.875,4.875,0,0,0,3.019,1.342h50.164c5.363,0,5.633-10.178,0-10.178H970.037V94.705h15.631c1.735,0,2.252-1.348,3.36-2.456l6.235-6.488c.051-.055.126-.132.177-.187,3.976-4.292,2.677-3-3.145-8.764-7.087-7.012-1.841-5.369-22.258-5.369V62.717c15.4,0,13.087,2.251,13.087-19.993,0-1.129-2.143-3.271-3.271-3.271h-9.815c0-1.859.059-5.816-4-5.816-3.309,0-7.318-.545-9.16,1.018a4.683,4.683,0,0,0-1.382,2.254Z" transform="translate(-927.87 -33.543)" fill="#cbcbcb" fill-rule="evenodd"/><path d="M1387.862,407.731l2.822,2.993-3.264,3.472,1.967,2.191c1.186-.765,5.018-3.9,5.018-6.112,0-.886-3.866-4.151-4.726-4.725a10.454,10.454,0,0,0-1.818,2.181Z" transform="translate(-1332.97 -361.473)" fill="#cbcbcb" fill-rule="evenodd"/><path d="M995.38,141.161a9.2,9.2,0,0,0,2.457,3,24.883,24.883,0,0,0,2.633,2.82l2.264-2.1-3.434-3.642,3.072-2.9-1.974-2.2a14.177,14.177,0,0,0-5.018,5.021Z" transform="translate(-987.381 -123.984)" fill="#cbcbcb" fill-rule="evenodd"/></svg>