<svg xmlns="http://www.w3.org/2000/svg" width="89.467" height="89.47" viewBox="0 0 89.467 89.47"><g transform="translate(21.318 48.859)"><path d="M184.892,418.021a2.67,2.67,0,0,1,3.57,1.121l4.935,9.138a1.747,1.747,0,0,0,3.284-.831V414.108a1.748,1.748,0,1,0-3.5,0v6.429l-1.649-3.055a6.178,6.178,0,0,0-11.441,4.384l3.2,13.26a23.929,23.929,0,0,0,3.962,8.551l6.267,8.576a1.747,1.747,0,1,0,2.821-2.062l-6.267-8.576a20.446,20.446,0,0,1-3.386-7.308l-3.2-13.26a2.673,2.673,0,0,1,1.4-3.025Z" transform="translate(-179.921 -412.36)" fill="#cbcbcb" fill-rule="evenodd"/></g><g transform="translate(34.583 27.543)"><path d="M323.031,251.989a5.919,5.919,0,0,0-2.848.728,5.943,5.943,0,0,0-8.552-3.011,5.941,5.941,0,0,0-7.862-2.942v-8.354a5.949,5.949,0,1,0-11.9,0v3.03a1.748,1.748,0,1,0,3.5,0v-3.03a2.454,2.454,0,1,1,4.908,0v24.658a1.748,1.748,0,0,0,3.5,0V252.181a2.454,2.454,0,1,1,4.908,0v10.886a1.748,1.748,0,1,0,3.5,0v-8.224a2.454,2.454,0,1,1,4.908,0v8.224a1.748,1.748,0,1,0,3.5,0v-5.128a2.454,2.454,0,0,1,4.908,0v14.744a38.638,38.638,0,0,1-1.771,11.571l-2.465,7.86a1.748,1.748,0,1,0,3.335,1.046l2.465-7.86a42.115,42.115,0,0,0,1.931-12.616V257.94a5.956,5.956,0,0,0-5.949-5.949Z" transform="translate(-291.87 -232.46)" fill="#cbcbcb" fill-rule="evenodd"/></g><g transform="translate(63.659)"><path d="M562.931,9.267a2.924,2.924,0,0,0-2.376-2L555.2,6.489l-2.395-4.85A2.924,2.924,0,0,0,550.171,0h0a2.923,2.923,0,0,0-2.638,1.641L545.14,6.492l-5.352.778a2.942,2.942,0,0,0-1.629,5.019l3.875,3.774-.914,5.331a2.937,2.937,0,0,0,4.268,3.1l4.787-2.518,4.788,2.515a2.942,2.942,0,0,0,4.268-3.1l-.916-5.331,3.872-3.776a2.924,2.924,0,0,0,.743-3.017Zm-7.263,4.493a2.944,2.944,0,0,0-.846,2.6l.775,4.512-4.053-2.129a2.937,2.937,0,0,0-2.738,0l-4.052,2.132.773-4.513a2.938,2.938,0,0,0-.847-2.6l-3.28-3.194,4.531-.66a2.941,2.941,0,0,0,2.214-1.61l2.025-4.106L552.2,8.3a2.944,2.944,0,0,0,2.216,1.609l4.531.658-3.277,3.2Z" transform="translate(-537.268)" fill="#cbcbcb" fill-rule="evenodd"/></g><g transform="translate(31.83)"><path d="M294.3,9.267a2.921,2.921,0,0,0-2.376-2l-5.352-.776-2.395-4.85A2.923,2.923,0,0,0,281.541,0h0A2.923,2.923,0,0,0,278.9,1.641L276.51,6.492l-5.352.778a2.942,2.942,0,0,0-1.629,5.019l3.873,3.774-.914,5.331a2.938,2.938,0,0,0,4.269,3.1l4.787-2.518,4.788,2.515a2.942,2.942,0,0,0,4.268-3.1l-.916-5.331,3.872-3.776a2.923,2.923,0,0,0,.743-3.015Zm-7.263,4.493a2.939,2.939,0,0,0-.845,2.6l.775,4.512-4.053-2.129a2.941,2.941,0,0,0-2.738,0l-4.052,2.132.773-4.513a2.941,2.941,0,0,0-.847-2.6l-3.28-3.194,4.531-.66a2.941,2.941,0,0,0,2.215-1.61l2.025-4.107L283.567,8.3a2.943,2.943,0,0,0,2.216,1.609l4.531.658-3.277,3.2Z" transform="translate(-268.638)" fill="#cbcbcb" fill-rule="evenodd"/></g><g transform="translate(0)"><path d="M25.661,9.267a2.925,2.925,0,0,0-2.376-2l-5.352-.776L15.539,1.64A2.924,2.924,0,0,0,12.9,0h0a2.923,2.923,0,0,0-2.637,1.641L7.87,6.492,2.518,7.27A2.942,2.942,0,0,0,.889,12.289l3.874,3.774L3.85,21.394a2.937,2.937,0,0,0,4.268,3.1L12.9,21.976l4.788,2.515a2.942,2.942,0,0,0,4.268-3.1l-.916-5.331,3.872-3.776a2.923,2.923,0,0,0,.743-3.015ZM18.4,13.76a2.944,2.944,0,0,0-.846,2.6l.775,4.512-4.052-2.129a2.941,2.941,0,0,0-2.738,0L7.484,20.88l.773-4.512a2.941,2.941,0,0,0-.847-2.6l-3.28-3.2,4.531-.66A2.943,2.943,0,0,0,10.875,8.3L12.9,4.191,14.927,8.3a2.943,2.943,0,0,0,2.216,1.609l4.531.658L18.4,13.76Z" transform="translate(0.002)" fill="#cbcbcb" fill-rule="evenodd"/></g><g transform="translate(34.584 41.974)"><path d="M294.863,354.762a1.748,1.748,0,1,0,.512,1.236A1.762,1.762,0,0,0,294.863,354.762Z" transform="translate(-291.88 -354.25)" fill="#cbcbcb" fill-rule="evenodd"/></g></svg>