<svg xmlns="http://www.w3.org/2000/svg" width="74.131" height="65.992" viewBox="0 0 74.131 65.992"><path d="M2306.486,176.435c3.867-1.415,5.488,4.561,1.861,5.648C2304.7,183.178,2302.687,177.826,2306.486,176.435Zm-28.859-.015c3.9-1.282,5.429,4.685,1.7,5.678C2275.613,183.087,2273.9,177.646,2277.627,176.42Zm1.462-33.677c-.964,3.562,3.9,2.865,6.362,2.887,9.071.081,23.614-.308,32.3.03l-1.872,5.686-28.128.064c-2.521-.011-5.488-.515-6.073,1.742a2.205,2.205,0,0,0,1.252,2.583c1.141.493,29.463.213,31.523.25l-1.578,4.838L2279,160.8l-10.677-30.743c-.609-1.764-1.261-4.872-2.569-5.71-1.063-.68-11.075-4.543-12-4.385-2.217.379-2.654,3.312-.03,4.444,1.871.807,4.069,1.59,5.947,2.338,3.635,1.447,2.861.436,4.16,4.095l10.588,30.688c-.544.8-.677.333-1.174,1.61l-2.063,5.769c-1.744,5.2-2.2,5.309,2.163,5.867-1.3,2.077-2.347,4.6-.843,7.521,3.457,6.7,13.914,3.558,12.6-4.353-.248-1.5-.953-2.164-1.427-3.238l18.55.02c-.339,1.127-1.192,1.681-1.46,3.43-1.148,7.506,9.235,10.886,12.634,4.154,1.962-3.886-.436-6.4-.738-7.595,1.88-.014,3.884.091,3.678-2.115-.172-1.844-2.113-1.642-3.921-1.641l-37.821-.015a35.459,35.459,0,0,1,1.891-5.7c6.8.468,19.082.077,26.028.081,15.407.007,13.308,1.459,15.625-6.14,8.918-29.259,11.949-27.7.262-27.636-7.288.04-14.584-.045-21.874,0l-20.529.058a2.191,2.191,0,0,0-1.693,3.283c.732,1.442,2.794,1.166,4.454,1.167h20.3c7.165-.009,14.436-.121,21.589.012a17.256,17.256,0,0,1-1.558,4.979c-6.076.386-24.963.066-32.5.055-2.472,0-6.849-.809-7.513,1.645Z" transform="translate(-2251.927 -119.96)" fill="#cbcbcb" fill-rule="evenodd"/></svg>