<svg xmlns="http://www.w3.org/2000/svg" xmlns:xlink="http://www.w3.org/1999/xlink" width="1919.67" height="673.352" viewBox="0 0 1919.67 673.352"><defs><clipPath id="a"><path d="M0,0H1919.67V673.352H0Z" fill="#f5f5f5" clip-rule="evenodd"/></clipPath></defs><g clip-path="url(#a)"><g transform="translate(2.243 -2.079)"><path d="M11038.633,2808.434c-15.32,3.949-20.37,17.13-17.662,35.83,5.054,34.9,51.3,32.865,47.168-13.462C11066.79,2815.691,11055.869,2803.991,11038.633,2808.434Zm-38.144,95.072c1.316-9.781-3.737-17.322,9.46-21.41,3.395-1.052,15.044-6.044,17.825-8.353,2.278-1.891,2.209-4.69-.871-5.3-2.014-.4-9.449,4.366-12.008,5.564-9.227,4.325-17.267,2.688-19.658,15.732a59.551,59.551,0,0,0-.6,13.218C10995.11,2908.855,10999.747,2909.021,11000.489,2903.506Zm94.213-2.237c.97-8.725-1.92-19.038-7.768-22.3-3.238-1.806-8.572-2.836-12.3-4.561-1.407-.65-6.219-3.305-9.263-4.844-2.748-1.389-7.187-1.225-5.356,2.2.636,1.193,2.335,2.7,5.817,4.52,14.276,7.448,19.921,5.6,22,12.561,1.226,4.112.732,8.62,1.095,12.7.425,4.795,5.146,5.427,5.782-.279Zm-53.747-87.484c-13.006,2.421-16.162,13.127-14.735,27.6,1.242,12.6,7.917,23.366,22.7,20.1C11067.965,2857.277,11069.868,2808.4,11040.955,2813.785Z" transform="translate(-10622.826 -2709.919)" fill="#f5f5f5" fill-rule="evenodd"/><path d="M4340.836,1842.054v-6.548h20.111v-3.741c6.091,3.223,7.815,3.741,14.966,3.741,0,7.975,1.327,16.32-4.286,22.92a18.6,18.6,0,0,1-5.057,4.221c-7.054,4.241-8.618,2.09-11,2.09-2.681,0-4.734,6.309,5.5,5.034a22.819,22.819,0,0,0,8.216-3.162c3.83-2.461,5.016-3.34,8.279-8.427,2.627-4.094,3.5-10,3.5-15.194v-10.523c0-1.175-.21-1.047-.233-2.1-9.465,0-14.269.826-21.572-6.489a32.066,32.066,0,0,0-3.45-3.333v9.822h-19.409c-.539,0-.7.163-.7.7,0,10.491-.838,18.92,4.451,28.054.407.7.964,1.514,1.494,2.247,1.965,2.722,1.538.87,1.538,6.412h-12.394c1.008-2.1,2.575-20.978,2.572-25.723,0-6.1-.43-16.5,1.138-21.546a19.524,19.524,0,0,1,.736-2.07,20.968,20.968,0,0,1,3.035-5.384,8.813,8.813,0,0,1,1.225-1.581c6.253-6.283,10.713-8.239,20.524-8.239a24.491,24.491,0,0,1,14.2,5.447c5.138,4.375,7.83,9.448,8.793,16.463.435,3.171.162,7.48.162,11.063,0,5.892.565,10.6.7,16.14.038,1.583.368,3.463.48,5.132.106,1.58.361,3.351.587,5.025.215,1.589.356,3.168,2.912,3.168,1.78,0,2.511-1.666,2.215-3.606-.31-2.027-.4-3.63-.618-5.708l-.655-8.7c-.032-1.214-.252-1.595-.247-3.028.017-4.135-.228-7.835-.228-12.165,0-8.284-.271-13.337-4.722-20.3-1.986-3.107-2.256-2.985-4.167-5.188a28.814,28.814,0,0,0-5.329-4.258c-5.33-3.588-10.514-4.63-17.119-4.63-12.926,0-25.442,11.112-28.047,23.868-1.117,5.471-.627,15.533-.707,21.976l-1.316,15.054c-.292,2.115-.449,3.908-.763,5.784a33.579,33.579,0,0,0-.736,5.812v2.339h17.772v2.572l-25.814,8.8c-4.065,1.421-6.043,2.57-8.767,6.2-3.1,4.138-3.228,10.275-4.044,16.066-.181,1.288-.407,3.065-.589,4.321s-.477,2.568-.54,3.72v.812c.094,1.412.754,2.411,2.806,2.411,1.8,0,2.161-1.54,2.382-3.23.688-5.237,1.486-10.42,2.159-15.655.4-3.1,1.382-6.565,5.04-8.482,1.815-.951,7.49-2.671,9.794-3.534,1.6-.6,3.238-1.155,5.034-1.749,1.013-.334,6.531-2.366,8.938-3.1l10.466,36.51a2.645,2.645,0,0,0,3.154,1.92h0a2.618,2.618,0,0,0,1.937-3.183l-10.607-37,.989-.377c1.188-.277,2.807-.579,2.807-1.4V1861.7c0-.421-1.033-1.489-1.37-1.9C4342.761,1854.633,4340.836,1849.478,4340.836,1842.054Zm33.333,38.4-10.569,36.867a2.618,2.618,0,0,0,1.936,3.183h0a2.646,2.646,0,0,0,3.155-1.92l10.434-36.4c2.557.81,7.612,2.669,8.576,2.987,1.8.594,3.433,1.148,5.034,1.749,2.3.864,7.979,2.583,9.794,3.534,3.658,1.917,4.641,5.382,5.04,8.482.674,5.235,1.472,10.418,2.16,15.655.222,1.69.584,3.23,2.382,3.23,2.053,0,2.712-1,2.807-2.411v-.812c-.063-1.152-.358-2.474-.54-3.72s-.408-3.034-.59-4.321c-.816-5.791-.94-11.929-4.044-16.066-2.723-3.629-4.7-4.778-8.768-6.2l-25.813-8.8v-1h-.037v-3.982a2.518,2.518,0,0,0-2.511-2.511h0a2.518,2.518,0,0,0-2.511,2.511v3.982h-.087v4.039c0,.824,1.618,1.126,2.807,1.4Z" transform="translate(-4159.304 -1734.858)" fill="#f5f5f5" fill-rule="evenodd"/><path d="M36566.391,2276.943v-6.548h20.109v-3.741c6.094,3.223,7.816,3.741,14.969,3.741,0,7.975,1.32,16.321-4.289,22.92a18.592,18.592,0,0,1-5.055,4.221c-7.055,4.241-8.617,2.09-11,2.09-2.687,0-4.734,6.308,5.492,5.034a22.857,22.857,0,0,0,8.219-3.162c3.828-2.461,5.012-3.341,8.277-8.427,2.629-4.094,3.5-10,3.5-15.194v-10.523c0-1.176-.211-1.047-.238-2.1-9.461,0-14.266.826-21.57-6.49a31.956,31.956,0,0,0-3.445-3.333v9.822h-19.414c-.539,0-.7.162-.7.7,0,10.491-.84,18.92,4.449,28.054.406.7.965,1.514,1.5,2.248,1.965,2.722,1.539.87,1.539,6.412h-12.4c1.016-2.1,2.578-20.979,2.578-25.723-.008-6.1-.434-16.5,1.141-21.546a18.805,18.805,0,0,1,.734-2.07,20.971,20.971,0,0,1,3.031-5.384,8.88,8.88,0,0,1,1.227-1.581c6.254-6.283,10.711-8.239,20.523-8.239a24.487,24.487,0,0,1,14.2,5.447c5.141,4.375,7.836,9.448,8.8,16.463.438,3.17.164,7.48.16,11.063,0,5.892.566,10.6.7,16.14.039,1.583.371,3.463.484,5.132.105,1.581.363,3.351.59,5.025.211,1.589.352,3.168,2.91,3.168,1.777,0,2.508-1.666,2.215-3.606-.312-2.027-.4-3.63-.617-5.708l-.656-8.7c-.031-1.213-.25-1.595-.246-3.028.02-4.135-.23-7.835-.23-12.165,0-8.284-.273-13.337-4.719-20.3-1.984-3.107-2.258-2.985-4.168-5.188a28.824,28.824,0,0,0-5.328-4.258c-5.328-3.588-10.512-4.63-17.121-4.63-12.922,0-25.445,11.112-28.047,23.868-1.117,5.471-.625,15.532-.7,21.976l-1.32,15.053c-.289,2.115-.445,3.908-.762,5.784a33.623,33.623,0,0,0-.738,5.812v2.338h17.777v2.572l-25.816,8.8c-4.066,1.421-6.043,2.57-8.766,6.2-3.105,4.138-3.227,10.276-4.047,16.066-.18,1.288-.406,3.065-.586,4.321s-.477,2.568-.543,3.72v.813c.1,1.412.754,2.411,2.809,2.411,1.8,0,2.164-1.54,2.383-3.23.688-5.237,1.484-10.42,2.156-15.655.4-3.1,1.383-6.565,5.043-8.482,1.813-.951,7.488-2.67,9.793-3.534,1.6-.6,3.238-1.155,5.035-1.749,1.012-.334,6.527-2.365,8.934-3.1l10.469,36.51a2.646,2.646,0,0,0,3.156,1.919h0a2.62,2.62,0,0,0,1.934-3.183l-10.605-37,.988-.378c1.191-.277,2.809-.579,2.809-1.4v-16.837c0-.421-1.039-1.489-1.371-1.9-4.191-5.16-6.113-10.316-6.113-17.74Zm33.328,38.4-10.566,36.867a2.619,2.619,0,0,0,1.938,3.183h0a2.644,2.644,0,0,0,3.152-1.919l10.438-36.4c2.555.81,7.609,2.669,8.57,2.987,1.8.594,3.438,1.148,5.039,1.749,2.3.864,7.977,2.583,9.793,3.535,3.66,1.917,4.637,5.382,5.039,8.482.676,5.235,1.469,10.418,2.16,15.655.219,1.69.586,3.23,2.383,3.23,2.051,0,2.711-1,2.8-2.411v-.812c-.062-1.152-.359-2.474-.539-3.72s-.406-3.034-.59-4.321c-.816-5.791-.941-11.929-4.043-16.066-2.723-3.629-4.7-4.778-8.77-6.2l-25.816-8.8v-1h-.039V2305.4a2.513,2.513,0,0,0-2.5-2.511h0a2.516,2.516,0,0,0-2.516,2.511v3.982h-.086v4.039c0,.824,1.617,1.126,2.8,1.4Z" transform="translate(-35288.867 -2154.956)" fill="#f5f5f5" fill-rule="evenodd"/><path d="M48171.117,13497.193v-6.549H48151v-3.74c-6.086,3.223-7.812,3.74-14.969,3.74,0,7.977-1.328,16.32,4.289,22.922a18.59,18.59,0,0,0,5.055,4.221c7.055,4.24,8.625,2.09,11,2.09,2.688,0,4.734,6.309-5.492,5.033a22.835,22.835,0,0,1-8.219-3.162c-3.828-2.459-5.016-3.34-8.273-8.426-2.625-4.094-3.5-10-3.5-15.193v-10.523c0-1.176.211-1.047.234-2.1,9.461,0,14.266.824,21.57-6.49a31.93,31.93,0,0,1,3.453-3.332v9.822h19.406c.539,0,.7.162.7.7,0,10.49.836,18.92-4.453,28.055-.406.7-.961,1.514-1.492,2.248-1.961,2.721-1.539.869-1.539,6.412h12.391c-1.008-2.1-2.57-20.979-2.57-25.725.008-6.1.43-16.5-1.141-21.545a18.093,18.093,0,0,0-.734-2.07,20.971,20.971,0,0,0-3.031-5.385,8.721,8.721,0,0,0-1.227-1.58c-6.258-6.283-10.711-8.238-20.523-8.238a24.466,24.466,0,0,0-14.2,5.445c-5.141,4.375-7.836,9.449-8.8,16.463-.43,3.172-.156,7.482-.156,11.063,0,5.895-.57,10.605-.7,16.143-.039,1.582-.367,3.463-.477,5.131-.109,1.58-.359,3.352-.594,5.025-.211,1.588-.352,3.168-2.906,3.168-1.781,0-2.516-1.666-2.219-3.607.313-2.025.4-3.629.617-5.707l.656-8.7c.031-1.213.258-1.6.25-3.027-.023-4.135.227-7.836.227-12.166,0-8.285.266-13.338,4.719-20.3,1.992-3.107,2.258-2.984,4.172-5.187a28.9,28.9,0,0,1,5.328-4.258c5.328-3.588,10.508-4.629,17.117-4.629,12.93,0,25.438,11.111,28.047,23.867,1.117,5.471.633,15.531.7,21.977l1.32,15.053c.289,2.115.445,3.906.766,5.785a34,34,0,0,1,.734,5.811v2.338h-17.773v2.572l25.813,8.8c4.07,1.422,6.047,2.57,8.766,6.2,3.109,4.139,3.227,10.275,4.047,16.066.18,1.287.406,3.064.586,4.322s.477,2.568.547,3.719v.814c-.1,1.41-.758,2.408-2.812,2.408-1.8,0-2.156-1.537-2.383-3.229-.687-5.236-1.484-10.42-2.156-15.654-.4-3.1-1.383-6.566-5.039-8.482-1.82-.951-7.492-2.672-9.789-3.535-1.609-.6-3.242-1.154-5.039-1.748-1.016-.334-6.531-2.365-8.937-3.1l-10.469,36.51a2.646,2.646,0,0,1-3.156,1.92h0a2.616,2.616,0,0,1-1.93-3.184l10.609-37-.992-.379c-1.2-.275-2.8-.578-2.8-1.4v-16.836c0-.422,1.031-1.49,1.367-1.9C48169.188,13509.773,48171.117,13504.617,48171.117,13497.193Zm-33.344,38.4,10.578,36.867a2.627,2.627,0,0,1-1.937,3.184h0a2.65,2.65,0,0,1-3.156-1.92l-10.437-36.4c-2.555.811-7.609,2.67-8.57,2.988-1.8.594-3.437,1.148-5.039,1.748-2.3.863-7.977,2.584-9.789,3.535-3.656,1.916-4.641,5.381-5.039,8.482-.672,5.234-1.477,10.418-2.164,15.654-.219,1.691-.586,3.229-2.383,3.229-2.047,0-2.711-1-2.8-2.408v-.812c.063-1.152.359-2.475.539-3.721s.406-3.035.594-4.322c.813-5.791.938-11.928,4.039-16.066,2.727-3.629,4.7-4.777,8.773-6.2l25.813-8.8v-1h.031v-3.982a2.52,2.52,0,0,1,2.516-2.51h0a2.519,2.519,0,0,1,2.508,2.51v3.982h.086v4.039c0,.824-1.617,1.127-2.8,1.4Z" transform="translate(-46463.5 -12993.607)" fill="#f5f5f5" fill-rule="evenodd"/><path d="M44568.836,2982.394c-15.32,3.949-20.371,17.131-17.66,35.831,5.051,34.9,51.3,32.866,47.164-13.462C44596.992,2989.651,44586.07,2977.951,44568.836,2982.394Zm-38.145,95.073c1.313-9.781-3.738-17.322,9.457-21.411,3.395-1.052,15.043-6.043,17.828-8.353,2.277-1.892,2.207-4.691-.871-5.3-2.016-.4-9.449,4.366-12.012,5.564-9.223,4.324-17.262,2.688-19.656,15.732a59.724,59.724,0,0,0-.6,13.218C44525.313,3082.815,44529.949,3082.981,44530.691,3077.467Zm94.207-2.237c.973-8.724-1.914-19.037-7.762-22.3-3.238-1.806-8.57-2.836-12.3-4.561-1.406-.65-6.219-3.3-9.262-4.844-2.75-1.39-7.187-1.226-5.363,2.2.641,1.193,2.34,2.7,5.824,4.52,14.277,7.449,19.914,5.6,22,12.561,1.227,4.111.73,8.62,1.094,12.7C44619.547,3080.3,44624.266,3080.935,44624.9,3075.229Zm-53.742-87.484c-13.008,2.421-16.164,13.127-14.738,27.6,1.246,12.6,7.918,23.366,22.7,20.1C44598.168,3031.237,44600.07,2982.362,44571.156,2987.745Z" transform="translate(-43012.668 -2877.963)" fill="#f5f5f5" fill-rule="evenodd"/><path d="M38436.836,12680.524c-15.32,3.949-20.371,17.132-17.66,35.832,5.055,34.9,51.3,32.864,47.168-13.465C38464.992,12687.781,38454.07,12676.082,38436.836,12680.524Zm5.781,133.2c3.168-1.02,3.926-2.939,6.148-4.833,2.578-2.19,3.816-2.111,3.789-6.91l-1.906-41.712c-.215-4.3-.91-6.057.727-9.484.977-2.042,1.879-3.609,1.895-5.075.031-2.982-2.34-4.249-4.434-3.306-2.684,1.209-.285,6.259-4.887,7.248-6.3,1.351-4.219-4.936-7.453-6.9-1.883-1.142-3.895.329-4.387,1.907-.535,2.457,1.055,4.181,1.773,6.244,2.746,7.912-4.141,50.771-.082,56.025C38435.418,12809.028,38439.918,12812.875,38442.617,12813.723Zm-.926-7.1c4.445-1.814,5.184-3.209,4.844-9.247-.473-8.549-.941-37.9-2.383-41.651l-3.074-.293c-1.6,2.482-1.324,9.264-1.469,12.716l-1.176,27.941C38438.02,12803.769,38438,12802.338,38441.691,12806.618Zm-43-31.021c1.316-9.782-3.734-17.322,9.457-21.411,3.4-1.052,15.047-6.043,17.832-8.353,2.273-1.892,2.2-4.691-.871-5.3-2.016-.4-9.449,4.367-12.012,5.565-9.227,4.324-17.266,2.688-19.656,15.73a59.506,59.506,0,0,0-.6,13.22C38393.316,12780.945,38397.949,12781.111,38398.691,12775.6Zm94.211-2.237c.973-8.725-1.918-19.038-7.766-22.3-3.238-1.806-8.57-2.835-12.3-4.56-1.406-.65-6.215-3.306-9.262-4.846-2.746-1.389-7.187-1.226-5.359,2.2.637,1.193,2.34,2.7,5.82,4.521,14.277,7.448,19.918,5.6,22,12.561,1.227,4.111.73,8.619,1.094,12.7C38487.547,12778.434,38492.27,12779.066,38492.9,12773.36Zm-53.746-87.485c-13.008,2.422-16.16,13.127-14.734,27.6,1.246,12.605,7.914,23.367,22.7,20.1C38466.172,12729.368,38468.07,12680.493,38439.156,12685.875Z" transform="translate(-37089.219 -12246.261)" fill="#f5f5f5" fill-rule="evenodd"/><path d="M50831.242,7809.693c-15.32,3.949-20.371,17.13-17.664,35.831,5.059,34.9,51.3,32.865,47.168-13.462C50859.4,7816.95,50848.477,7805.25,50831.242,7809.693Zm5.781,133.2c3.168-1.019,3.922-2.939,6.148-4.832,2.582-2.191,3.816-2.112,3.785-6.911l-1.9-41.712c-.215-4.3-.91-6.056.723-9.483.977-2.042,1.879-3.61,1.9-5.076.031-2.982-2.34-4.249-4.434-3.306-2.684,1.21-.285,6.26-4.891,7.248-6.3,1.353-4.215-4.935-7.453-6.894-1.879-1.142-3.895.328-4.387,1.907-.531,2.457,1.059,4.181,1.773,6.244,2.75,7.912-4.137,50.771-.082,56.026C50829.824,7938.2,50834.32,7942.043,50837.023,7942.89Zm-.93-7.1c4.449-1.813,5.188-3.208,4.848-9.247-.477-8.549-.941-37.9-2.387-41.652l-3.07-.293c-1.6,2.483-1.324,9.264-1.469,12.717l-1.176,27.941C50832.422,7932.937,50832.406,7931.506,50836.094,7935.786Zm-43-31.02c1.32-9.782-3.734-17.322,9.461-21.411,3.395-1.052,15.043-6.043,17.828-8.354,2.277-1.891,2.211-4.69-.871-5.3-2.016-.4-9.449,4.366-12.012,5.564-9.227,4.325-17.262,2.688-19.652,15.732a59.479,59.479,0,0,0-.6,13.217C50787.719,7910.114,50792.355,7910.28,50793.094,7904.766Zm94.215-2.237c.969-8.725-1.918-19.038-7.766-22.3-3.238-1.806-8.57-2.836-12.3-4.561-1.406-.649-6.219-3.3-9.266-4.844-2.746-1.39-7.184-1.226-5.359,2.2.645,1.194,2.34,2.7,5.82,4.52,14.281,7.449,19.922,5.6,22,12.561,1.227,4.111.73,8.62,1.094,12.7C50881.953,7907.6,50886.672,7908.234,50887.309,7902.529Zm-53.742-87.484c-13.008,2.421-16.164,13.127-14.742,27.6,1.246,12.6,7.922,23.366,22.7,20.1C50860.574,7858.537,50862.477,7809.662,50833.566,7815.044Z" transform="translate(-49062.09 -7541.086)" fill="#f5f5f5" fill-rule="evenodd"/><path d="M29521.543,14463.525c-15.322,3.948-20.369,17.131-17.662,35.831,5.055,34.9,51.3,32.865,47.168-13.463C29549.7,14470.781,29538.779,14459.083,29521.543,14463.525Zm-38.145,95.072c1.316-9.781-3.736-17.322,9.461-21.41,3.395-1.053,15.045-6.044,17.826-8.353,2.277-1.893,2.209-4.691-.871-5.3-2.014-.4-9.451,4.366-12.008,5.564-9.227,4.324-17.268,2.688-19.658,15.732a59.6,59.6,0,0,0-.6,13.218C29478.02,14563.946,29482.656,14564.112,29483.4,14558.6Zm94.213-2.237c.973-8.725-1.918-19.038-7.768-22.3-3.236-1.807-8.57-2.837-12.3-4.561-1.408-.65-6.219-3.306-9.264-4.845-2.748-1.39-7.186-1.226-5.357,2.2.637,1.192,2.336,2.7,5.818,4.52,14.277,7.449,19.922,5.6,22,12.561,1.227,4.111.734,8.619,1.1,12.7C29572.256,14561.434,29576.977,14562.066,29577.611,14556.36Zm-53.746-87.484c-13.006,2.422-16.162,13.127-14.734,27.6,1.24,12.6,7.916,23.365,22.7,20.1C29550.877,14512.369,29552.777,14463.493,29523.865,14468.876Z" transform="translate(-28477.135 -13968.621)" fill="#f5f5f5" fill-rule="evenodd"/><path d="M3906.434,12158.625c-15.322,3.949-20.371,17.131-17.663,35.83,5.054,34.9,51.3,32.865,47.168-13.463C3934.591,12165.881,3923.669,12154.182,3906.434,12158.625Zm-38.145,95.072c1.316-9.781-3.736-17.322,9.46-21.41,3.4-1.053,15.045-6.045,17.826-8.354,2.279-1.891,2.21-4.691-.871-5.3-2.014-.4-9.449,4.365-12.007,5.564-9.227,4.324-17.267,2.688-19.659,15.732a59.61,59.61,0,0,0-.6,13.217C3862.911,12259.045,3867.547,12259.211,3868.289,12253.7Zm94.213-2.236c.971-8.727-1.919-19.039-7.767-22.3-3.238-1.807-8.572-2.836-12.3-4.561-1.407-.65-6.218-3.3-9.262-4.846-2.749-1.389-7.187-1.225-5.358,2.205.637,1.193,2.336,2.7,5.818,4.52,14.277,7.449,19.921,5.6,22,12.561,1.226,4.111.732,8.619,1.095,12.7.425,4.8,5.147,5.428,5.782-.277Zm-53.746-87.486c-13.005,2.422-16.163,13.129-14.735,27.6,1.243,12.6,7.917,23.365,22.7,20.1C3935.766,12207.469,3937.669,12158.592,3908.756,12163.975Z" transform="translate(-3733.192 -11742.11)" fill="#f5f5f5" fill-rule="evenodd"/><g transform="translate(261.671 156.265)"><path d="M7858.989,4552.807l-99.1-13.312.8-5.946,99.1,13.312Z" transform="translate(-7759.891 -4533.55)" fill="#f5f5f5"/></g><g transform="translate(183.641 209.409)"><path d="M5465.561,6283.983l7.4-187.842,5.993.236-7.395,187.84Z" transform="translate(-5465.561 -6096.141)" fill="#f5f5f5"/></g><g transform="translate(240.565 210.532)"><path d="M7370.054,6402.264l-230.733-269.19,4.554-3.9,230.733,269.189Z" transform="translate(-7139.32 -6129.17)" fill="#f5f5f5"/></g><g transform="translate(1.105 109.709)"><path d="M98.42,3170.609l.658-5.949,145.269,16.2-.658,5.949Z" transform="translate(-98.42 -3164.66)" fill="#f5f5f5"/></g><g transform="translate(482.409 154.76)"><path d="M15006.188,4495.3l-755.8,10.354-.085-6,755.8-10.353Z" transform="translate(-14250.301 -4489.3)" fill="#f5f5f5"/></g><g transform="translate(245.695 490.941)"><path d="M7507.62,14383.671l-217.479-3.571.1-6,217.479,3.57Z" transform="translate(-7290.141 -14374.1)" fill="#f5f5f5"/></g><g transform="translate(208.534 526.254)"><path d="M6757.263,15555.6,6197.5,15418.2l1.46-5.8,559.765,137.4Z" transform="translate(-6197.5 -15412.4)" fill="#f5f5f5"/></g><g transform="translate(0 184.498)"><path d="M65.94,5460.711,200.4,5363.7l3.51,4.864L69.45,5465.576Z" transform="translate(-65.94 -5363.7)" fill="#f5f5f5"/></g><g transform="translate(456.011 3.543)"><path d="M13478.77,185.675l-4.67-3.743L13584.318,43.05l4.67,3.743Z" transform="translate(-13474.1 -43.05)" fill="#f5f5f5"/></g><g transform="translate(206.722)"><path d="M6321.209,91.869,6144.229-56.547l3.842-4.593,176.98,148.416Z" transform="translate(-6144.229 61.14)" fill="#f5f5f5"/></g><g transform="translate(0.97 522.19)"><path d="M98.1,15381.813l-3.647-4.758,109.361-84.154,3.647,4.755Z" transform="translate(-94.45 -15292.9)" fill="#f5f5f5"/></g><g transform="translate(34.32 5.223)"><path d="M1075.05,93.747l5.865-1.307L1181.361,535.7l-5.865,1.309Z" transform="translate(-1075.05 -92.44)" fill="#f5f5f5"/></g><g transform="translate(203.632 3.013)"><path d="M6056.966,487.657l-3.586-4.806,607.806-455.4,3.588,4.8Z" transform="translate(-6053.38 -27.45)" fill="#f5f5f5"/></g><g transform="translate(1348.292 204.364)"><path d="M40008.262,6271.893,39710,5951.906l4.375-4.086,298.266,319.989Z" transform="translate(-39710 -5947.819)" fill="#f5f5f5"/></g><g transform="translate(1115.466 562.638)"><path d="M33378.09,16488.182l-513.645,20.119-.246-5.984,513.648-20.117Z" transform="translate(-32864.199 -16482.199)" fill="#f5f5f5"/></g><g transform="translate(1593.411 6.502)"><path d="M46921.969,280.05l-4.672-3.743,116.094-146.277,4.672,3.743Z" transform="translate(-46917.297 -130.03)" fill="#f5f5f5"/></g><g transform="translate(1352.999 5.916)"><path d="M40025.375,265.829,39848.4,117.413l3.84-4.593,176.98,148.416Z" transform="translate(-39848.398 -112.82)" fill="#f5f5f5"/></g><g transform="translate(1344.517 147.373)"><path d="M39773.535,4291.383,39599,4278.072l.461-5.982,174.523,13.313Z" transform="translate(-39599 -4272.09)" fill="#f5f5f5"/></g><g transform="translate(1343.384 2.702)"><path d="M39820.1,18.31l2.727,5.427-254.4,131.636-2.723-5.427Z" transform="translate(-39565.703 -18.31)" fill="#f5f5f5"/></g><g transform="translate(1608.876 208.549)"><path d="M47499.184,6182.1,47372,6075.443l3.844-4.594,127.18,106.653Z" transform="translate(-47372 -6070.85)" fill="#f5f5f5"/></g><g transform="translate(1380.904 66.661)"><path d="M40672.613,2320.562l-3.715-4.7,526.461-416.948,3.711,4.706Z" transform="translate(-40668.898 -1898.91)" fill="#f5f5f5"/></g><g transform="translate(1382.859 543.456)"><path d="M40838.859,16050.666l-112.461-128.525,4.523-3.939,112.461,128.527Z" transform="translate(-40726.398 -15918.201)" fill="#f5f5f5"/></g><g transform="translate(1799.957 4.508)"><path d="M52996.113,389.6l-5.711-1.813,99.207-316.369,5.715,1.813Z" transform="translate(-52990.402 -71.42)" fill="#f5f5f5"/></g><g transform="translate(1587.347 237.001)"><path d="M46809.566,7129.238,46739,6909.252l5.73-1.8,70.566,219.985Z" transform="translate(-46739 -6907.45)" fill="#f5f5f5"/></g><g transform="translate(1115.436 597.893)"><path d="M32947.664,17597.117l-84.363-73.8,3.949-4.516,84.359,73.8Z" transform="translate(-32863.301 -17518.801)" fill="#f5f5f5"/></g><g transform="translate(1113.164 516.803)"><path d="M32974.148,15140.288l-176.062,48.2-1.586-5.789,176.066-48.2Z" transform="translate(-32796.5 -15134.501)" fill="#f5f5f5"/></g><g transform="translate(575.086 499.855)"><path d="M17390.977,14710.767l-415.676-68.646.977-5.922,415.676,68.649Z" transform="translate(-16975.301 -14636.199)" fill="#f5f5f5"/></g><g transform="translate(1386.56 223.71)"><path d="M40982.246,6519.954,40840.2,6735.287l-5-3.3,142.047-215.333Z" transform="translate(-40835.195 -6516.649)" fill="#f5f5f5"/></g><g transform="translate(1758.38 564.91)"><path d="M51909.383,16660.785l-141.484-107,3.605-4.781,141.48,107Z" transform="translate(-51767.898 -16549)" fill="#f5f5f5"/></g><g transform="translate(1732.498 453.344)"><path d="M51189.766,13274.109l-180.492,77.776-2.375-5.509,180.5-77.777Z" transform="translate(-51006.898 -13268.6)" fill="#f5f5f5"/></g><g transform="translate(1800.311 381.249)"><path d="M53100.156,11386.812l-99.352-235.679,5.531-2.333,99.352,235.683Z" transform="translate(-53000.805 -11148.8)" fill="#f5f5f5"/></g><g transform="translate(97.605 581.282)"><path d="M2936.408,17121.27l-.578-5.973,881.625-84.9.578,5.973Z" transform="translate(-2935.83 -17030.4)" fill="#f5f5f5"/></g><g transform="translate(431.673 5.413)"><path d="M12758.5,103.95l.979-5.92,823.84,133.116-.98,5.92Z" transform="translate(-12758.5 -98.03)" fill="#f5f5f5"/></g><g transform="translate(239.133 8.246)"><path d="M7101.02,304.346l-3.82-4.619,143.791-118.4,3.819,4.619Z" transform="translate(-7097.2 -181.33)" fill="#f5f5f5"/></g><g transform="translate(1605.488 161.55)"><path d="M47272.4,4694.733l1.465-5.8,299.086,75.36-1.457,5.8Z" transform="translate(-47272.398 -4688.93)" fill="#f5f5f5"/></g><g transform="translate(447.001 202.887)"><path d="M13262.445,6120.28l-53.246-214.464,5.82-1.445,53.248,214.464Z" transform="translate(-13209.199 -5904.37)" fill="#f5f5f5"/></g><g transform="translate(460.524 561.699)"><path d="M13660.045,16454.6l5.4,2.645-53.246,107.969-5.4-2.645Z" transform="translate(-13606.799 -16454.602)" fill="#f5f5f5"/></g><g transform="translate(199.848 541.239)"><path d="M5945.262,15853l199.673,124.241-3.159,5.111L5942.1,15858.112Z" transform="translate(-5942.1 -15853.001)" fill="#f5f5f5"/></g><g transform="translate(7.106 447.643)"><path d="M413.563,13127.623l-1.131,5.941-137.552-26.623,1.13-5.941Z" transform="translate(-274.88 -13101)" fill="#f5f5f5"/></g><g transform="translate(1133.509 8.759)"><path d="M33524.531,279.795l-129.832-78.24,3.074-5.145,129.832,78.239Z" transform="translate(-33394.699 -196.41)" fill="#f5f5f5"/></g><path d="M14300.935,13043.522c-15.322,3.949-20.372,17.131-17.664,35.831,5.054,34.9,51.3,32.865,47.168-13.463C14329.089,13050.779,14318.169,13039.08,14300.935,13043.522Zm5.779,133.2c3.171-1.02,3.923-2.939,6.15-4.833,2.579-2.19,3.813-2.111,3.786-6.91l-1.9-41.712c-.219-4.3-.907-6.057.727-9.483.975-2.044,1.877-3.611,1.893-5.076.03-2.982-2.338-4.249-4.43-3.306-2.684,1.209-.284,6.259-4.89,7.248-6.3,1.351-4.219-4.937-7.452-6.895-1.884-1.143-3.895.328-4.387,1.906-.534,2.457,1.056,4.181,1.771,6.243,2.748,7.913-4.139,50.771-.082,56.026C14299.516,13172.026,14304.012,13175.873,14306.714,13176.721Zm-.927-7.1c4.448-1.814,5.186-3.209,4.847-9.247-.477-8.549-.94-37.9-2.384-41.652l-3.071-.293c-1.6,2.483-1.327,9.265-1.469,12.717l-1.176,27.941C14302.115,13166.766,14302.1,13165.336,14305.787,13169.616Zm-43-31.021c1.316-9.78-3.735-17.321,9.46-21.41,3.4-1.052,15.046-6.044,17.826-8.353,2.278-1.892,2.209-4.69-.871-5.3-2.015-.4-9.449,4.367-12.007,5.565-9.228,4.323-17.268,2.688-19.659,15.731a59.557,59.557,0,0,0-.6,13.219C14257.411,13143.943,14262.047,13144.109,14262.788,13138.595Zm94.213-2.236c.972-8.726-1.919-19.038-7.768-22.3-3.237-1.807-8.571-2.836-12.3-4.561-1.406-.649-6.218-3.3-9.262-4.844-2.75-1.39-7.187-1.226-5.358,2.2.637,1.191,2.337,2.7,5.818,4.519,14.276,7.449,19.922,5.6,22,12.562,1.226,4.11.732,8.619,1.095,12.7C14351.645,13141.432,14356.367,13142.063,14357,13136.358Zm-53.746-87.485c-13,2.422-16.163,13.128-14.735,27.6,1.243,12.6,7.918,23.366,22.7,20.1C14330.266,13092.366,14332.168,13043.49,14303.255,13048.873Z" transform="translate(-13774.175 -12596.913)" fill="#f5f5f5" fill-rule="evenodd"/></g></g></svg>