<svg xmlns="http://www.w3.org/2000/svg" width="128" height="128" viewBox="0 0 128 128"><g transform="translate(-200 -1978)"><circle cx="64" cy="64" r="64" transform="translate(200 1978)" fill="#3e5272"/><g transform="translate(229.36 2012.015)"><path d="M559.555,579.19H507.962a3.782,3.782,0,0,0-3.782,3.782v30.252A3.782,3.782,0,0,0,507.962,617h25.123v-2.521H507.962a1.261,1.261,0,0,1-1.261-1.261V582.972a1.261,1.261,0,0,1,1.261-1.261h51.594a1.26,1.26,0,0,1,1.261,1.261v22.689h2.521V582.972A3.782,3.782,0,0,0,559.555,579.19Z" transform="translate(-504.18 -579.19)" fill="#fff" fill-rule="evenodd"/><g transform="translate(23.863 36.555)"><rect width="2.521" height="7.563" fill="#fff"/></g><g transform="translate(5.702 26.471)"><path d="M605.872,1037.542a1.261,1.261,0,0,1-1.261-1.261v-2.521H602.09v2.521a3.782,3.782,0,0,0,3.782,3.782h2.521v-2.521Z" transform="translate(-602.09 -1033.76)" fill="#fff" fill-rule="evenodd"/></g><g transform="translate(5.702 21.429)"><rect width="2.521" height="2.521" fill="#fff"/></g><g transform="translate(31.424 22.688)"><path d="M1067.19,972.812a13.7,13.7,0,1,0,0,19.369,13.7,13.7,0,0,0,0-19.369Zm-9.692,20.859a11.174,11.174,0,1,1,11.178-11.171,11.174,11.174,0,0,1-11.178,11.171Z" transform="translate(-1043.81 -968.8)" fill="#fff" fill-rule="evenodd"/></g><g transform="translate(55.292 46.553)"><path d="M1467.263,1386.909l-7.912-7.91a1.26,1.26,0,0,0-1.782,0l-3.517,3.517a1.261,1.261,0,0,0,0,1.783l7.912,7.913a1.26,1.26,0,0,0,.891.369h0a1.259,1.259,0,0,0,.891-.373l3.517-3.517a1.261,1.261,0,0,0,0-1.782Zm-4.408,2.629-6.13-6.131,1.734-1.734,6.13,6.131Z" transform="translate(-1453.683 -1378.63)" fill="#fff" fill-rule="evenodd"/></g><g transform="translate(53.022 44.284)"><rect width="2.521" height="6.217" transform="translate(0 1.783) rotate(-45)" fill="#fff"/></g><g transform="translate(45.291 27.731)"><path d="M1281.95,1055.41v2.521a6.31,6.31,0,0,1,6.3,6.3h2.521A8.833,8.833,0,0,0,1281.95,1055.41Z" transform="translate(-1281.95 -1055.41)" fill="#fff" fill-rule="evenodd"/></g><g transform="translate(21.342 42.857)"><rect width="10.084" height="2.521" fill="#fff"/></g><path d="M624.5,684.091h-8.6a1.433,1.433,0,0,0-1.434,1.434v6.452a1.433,1.433,0,0,0,1.434,1.434h8.6a1.433,1.433,0,0,0,1.434-1.434v-6.452a1.433,1.433,0,0,0-1.434-1.434h0Zm-8.6,7.886v-6.452h8.6v6.452h-8.6ZM615.894,691.976Z" transform="translate(-608.038 -677.981)" fill="#fff" fill-rule="evenodd"/><path d="M899.736,684.091h-8.6a1.433,1.433,0,0,0-1.434,1.434v6.452a1.433,1.433,0,0,0,1.434,1.434h8.6a1.433,1.433,0,0,0,1.434-1.434v-6.452a1.433,1.433,0,0,0-1.434-1.434h0Zm-8.6,7.886v-6.452h8.6v6.452h-8.6ZM891.134,691.976Z" transform="translate(-867.25 -677.981)" fill="#fff" fill-rule="evenodd"/><path d="M1174.986,684.091h-8.6a1.433,1.433,0,0,0-1.434,1.434v6.452a1.433,1.433,0,0,0,1.434,1.434h8.6a1.434,1.434,0,0,0,1.434-1.434v-6.452a1.434,1.434,0,0,0-1.434-1.434h0Zm-8.6,7.886v-6.452h8.6v6.452h-8.6ZM1166.384,691.976Z" transform="translate(-1126.472 -677.981)" fill="#fff" fill-rule="evenodd"/><path d="M775.686,905.08h-8.6a1.433,1.433,0,0,0-1.434,1.434v6.452a1.434,1.434,0,0,0,1.434,1.434h8.6a1.434,1.434,0,0,0,1.434-1.434v-6.452a1.434,1.434,0,0,0-1.434-1.434Zm-8.6,7.885v-6.452h8.6v6.452ZM767.084,912.965Z" transform="translate(-750.424 -886.103)" fill="#fff" fill-rule="evenodd"/></g></g></svg>