<svg xmlns="http://www.w3.org/2000/svg" width="128" height="128" viewBox="0 0 128 128"><g transform="translate(-1451 -2353)"><circle cx="64" cy="64" r="64" transform="translate(1451 2353)" fill="#3e5272"/><g transform="translate(1480.926 2388.604)"><path d="M326.119,338.195v-1.54a4.264,4.264,0,0,0-4.26-4.26h-14.2v-7.1a1.42,1.42,0,0,0-1.42-1.42h-4.26v-4.259a1.42,1.42,0,0,0-1.42-1.42H281.275l-2.424-2.424a1.419,1.419,0,0,0-2.007,0l-8.1,8.1H266.49a1.42,1.42,0,0,0-1.42,1.42v39.752a1.421,1.421,0,0,0,1.42,1.42h5.821a7.071,7.071,0,0,0,1.28,2.839h-2.844a1.42,1.42,0,1,0,0,2.839h8.528a7.111,7.111,0,0,0,6.945-5.679h25.841a7.064,7.064,0,0,0,1.28,2.839H310.5a1.42,1.42,0,0,0,0,2.841h8.528a7.111,7.111,0,0,0,6.946-5.679H331.8a1.42,1.42,0,0,0,1.42-1.42V346.592a8.53,8.53,0,0,0-7.1-8.4Zm-26.975-17.157v2.839H286.955l-2.839-2.839Zm-21.295-2.252,1.835,1.835,0,0,3.254,3.254H272.757l5.091-5.091Zm1.419,50.521a4.259,4.259,0,1,1,4.259-4.259A4.264,4.264,0,0,1,279.268,369.306Zm25.555-35.492V357.95h-9.655a1.42,1.42,0,0,0,0,2.839h9.655v2.839h-18.6a7.1,7.1,0,0,0-13.911,0h-4.4V340.914h5.679a1.42,1.42,0,1,0,0-2.839h-5.679v-2.839h17.036a1.42,1.42,0,1,0,0-2.839H267.911v-5.68h36.912Zm7.242,29.813h-4.4v-2.839h5.683A7.071,7.071,0,0,0,312.065,363.628Zm11.214,1.425a4.259,4.259,0,1,1-4.27-4.264h.014a4.264,4.264,0,0,1,4.255,4.255v.009Zm7.1-1.425h-4.4a7.11,7.11,0,0,0-6.956-5.679H307.661V335.234h14.2a1.421,1.421,0,0,1,1.42,1.42v1.419h-9.937a1.42,1.42,0,0,0-1.419,1.42V352.27a1.42,1.42,0,0,0,1.419,1.42h17.036v9.937ZM317.6,340.912v9.937h-2.839v-9.937Zm12.777,9.937H320.44v-9.937H324.7a5.685,5.685,0,0,1,5.679,5.679v4.26Z" transform="translate(-265.07 -315.357)" fill="#fff" fill-rule="evenodd"/><path d="M471.3,695.461h.886a1.42,1.42,0,0,0,0-2.841H471.3a1.42,1.42,0,0,0,0,2.841Z" transform="translate(-446.757 -650.028)" fill="#fff" fill-rule="evenodd"/><path d="M471.3,469.111h.886a1.42,1.42,0,0,0,0-2.841H471.3a1.42,1.42,0,1,0,0,2.841Z" transform="translate(-446.757 -449.232)" fill="#fff" fill-rule="evenodd"/></g></g></svg>