<svg xmlns="http://www.w3.org/2000/svg" width="137.46" height="85.965" viewBox="0 0 137.46 85.965"><g transform="translate(0 0.01)"><g transform="translate(0 -0.01)"><path d="M44.12.121H38.249L29.12,33.075h6.086l1.715-5.827h8.442l1.67,5.827h6.086L44.12.121ZM38.38,21.463,41.122,9.25l2.743,12.213Zm35.566-5.741c0-4.544-2.957-8.056-9.17-8.056-5.485,0-9.556,2.529-9.556,8.228,0,4.971,3.557,6.555,7.241,7.028,3.043.386,5.827.428,5.827,2.57,0,1.242-1.2,2.57-3.557,2.57-2.829,0-3.771-1.028-3.9-2.784H54.877c0,4.885,3.6,7.928,9.6,7.928,5.441,0,9.77-2.4,9.77-7.928,0-4.5-3.384-6.514-6.772-6.9s-6.3,0-6.3-2.784c0-1.756,1.37-2.656,3.643-2.656,1.887,0,3.384.856,3.384,2.784h5.741ZM99.1,33.075,90.143,19.148,98.24,7.79h-6.6l-6.258,9H83.8V-.01H77.923V33.072H83.8V22.1h1.67l7.028,10.971h6.6Z" transform="translate(-19.074 0.01)"/><path d="M19.541,125.767H0v5.272H6.855v27.6h5.872v-27.6h6.814Zm10.584,22.8c-.259,2.529-1.2,5.013-4.626,5.013-2.015,0-3.471-.555-3.471-2.229,0-2.015,2.1-3.384,8.1-2.784Zm-7.286-6.514c-.041-2.7.9-3.6,3.471-3.6,3.084,0,3.812,1.887,3.812,5.658-8.7-.6-13.669,1.756-13.669,7.714,0,4.758,3.129,7.155,7.286,7.155a8.063,8.063,0,0,0,6.641-3.257l.555,2.915h4.8V143.083c0-6.555-2.87-9.857-9.47-9.857-6.041,0-9.429,2.529-9.042,8.828h5.613Zm38.867,16.584L52.75,144.708l8.1-11.357h-6.6l-6.258,9H46.4v-16.8H40.53v33.082H46.4V147.661h1.67L55.1,158.632h6.6ZM77.69,150.88c0,1.756-1.156,2.743-3.943,2.743-2.4,0-3.985-.773-3.985-4.844v-.642H83.475v-5.013c0-6.814-3.171-9.857-9.812-9.857s-9.812,3.516-9.812,9.857v5.741c0,6.814,3.171,9.857,9.812,9.857s9.812-2.529,9.812-7.842Zm-3.857-12.513c3.343,0,3.943,1.756,3.943,4.927H69.762C69.762,140.25,70.362,138.367,73.833,138.367Z" transform="translate(0 -82.232)"/><path d="M275.235,95.751h5.613v3.215c0,3.257-1.5,5.058-5.786,5.058s-5.1-1.8-5.1-4.927V86.157c0-3,.814-4.927,5.1-4.927,4.585,0,5.358,1.542,5.358,4.626h5.913c0-7.069-3.3-9.857-11.271-9.857s-11.012,3.129-11.012,9.857V99.1c0,7.114,3.171,10.243,11.012,10.243s11.271-3.129,11.271-10.371V90.4h-11.1v5.358ZM300.6,109.592c6.641,0,9.812-3.043,9.812-9.857V93.65c0-6.814-3.171-9.857-9.812-9.857s-9.812,3.215-9.812,9.857v6.086C290.791,106.549,293.961,109.592,300.6,109.592Zm0-5.227c-3.084,0-3.9-1.8-3.9-4.927V93.954c0-3.129.814-4.927,3.9-4.927s3.9,1.8,3.9,4.927v5.485C304.5,102.568,303.687,104.366,300.6,104.366Z" transform="translate(-172.954 -49.777)"/><path d="M208.939,64.143a1.2,1.2,0,0,1-.883-2.229c3.664-1.463,6.344-1.508,8.049-.59a4.175,4.175,0,0,1,2.17,3.119,8.517,8.517,0,0,1-.531,4.233c-1.58,4.413-6.189,9.722-13.731,13.934l1.473,2.153c.376.652.217,1-.421,1.063l-3.705.138-3.667.138c-.711-.035-.932-.376-.714-.987l1.466-3.405L199.9,78.34c.335-.618.714-.621,1.135-.076l1.618,2.36c7.1-3.912,11.392-8.753,12.827-12.758a6.164,6.164,0,0,0,.428-3.019,1.862,1.862,0,0,0-.942-1.408c-1.107-.6-3.088-.473-6.027.7Z" transform="translate(-128.969 -39.763)" fill="#fff"/><path d="M185.542,199.179a1.2,1.2,0,1,1,2.191-.976,7.35,7.35,0,0,0,1.363,2.063c2.115,2.229,5.648,2.915,9.874,2.518a49.155,49.155,0,0,0,14.742-4.323A77.693,77.693,0,0,0,232.82,186.38l-1.763-2.084c-.442-.611-.317-.969.311-1.1l3.671-.514,3.633-.507c.711-.038.963.279.811.911l-1.114,3.536-1.1,3.5c-.269.649-.649.69-1.121.19l-1.773-2.1a80.24,80.24,0,0,1-19.682,12.437,51.4,51.4,0,0,1-15.5,4.519c-4.937.462-9.146-.428-11.826-3.253a9.642,9.642,0,0,1-1.815-2.739Z" transform="translate(-121.462 -119.319)" fill="#fff"/></g></g></svg>