<svg xmlns="http://www.w3.org/2000/svg" width="131.231" height="82.065" viewBox="0 0 131.231 82.065">
  <g id="Layer_x0020_1" transform="translate(8.451 -0.01)">
    <g id="_1920094690976" transform="translate(-8.451 0.01)">
      <path id="Path_208" data-name="Path 208" d="M160.918.131h-5.6L146.6,31.589h5.81l1.636-5.564H162.1l1.595,5.564h5.81L160.918.131ZM155.436,20.5l2.618-11.659L160.672,20.5Zm33.955-5.482c0-4.336-2.823-7.692-8.754-7.692-5.236,0-9.123,2.413-9.123,7.854,0,4.746,3.395,6.259,6.913,6.71,2.9.369,5.564.41,5.564,2.454,0,1.187-1.146,2.454-3.395,2.454-2.7,0-3.6-.982-3.723-2.659h-5.687c0,4.664,3.436,7.569,9.164,7.569,5.195,0,9.328-2.29,9.328-7.569,0-4.295-3.231-6.218-6.464-6.587s-6.013,0-6.013-2.659c0-1.677,1.31-2.536,3.477-2.536,1.8,0,3.231.818,3.231,2.659h5.482ZM213.4,31.589l-8.549-13.295,7.731-10.841h-6.3l-5.974,8.592H198.8V.01h-5.6V31.591h5.6V21.12h1.595l6.71,10.472h6.3Z" transform="translate(-137.005 -0.01)"/>
      <path id="Path_209" data-name="Path 209" d="M116.106,212.051H97.45v5.031H104v26.345h5.6V217.082h6.5Zm10.1,21.764c-.246,2.413-1.146,4.787-4.418,4.787-1.923,0-3.313-.531-3.313-2.128,0-1.923,2-3.231,7.733-2.659Zm-6.954-6.218c-.041-2.577.859-3.436,3.313-3.436,2.946,0,3.641,1.8,3.641,5.4-8.3-.572-13.051,1.677-13.051,7.364,0,4.541,2.987,6.831,6.954,6.831a7.7,7.7,0,0,0,6.341-3.11l.531,2.782h4.582V228.577c0-6.259-2.741-9.41-9.041-9.41-5.769,0-9,2.413-8.631,8.428h5.359Zm37.1,15.833-8.549-13.295,7.731-10.841h-6.3l-5.974,8.592h-1.513V211.85h-5.6v31.581h5.6V232.96h1.595l6.71,10.472h6.3Zm15.259-7.4c0,1.677-1.1,2.618-3.764,2.618-2.29,0-3.8-.736-3.8-4.623v-.613h13.092V228.62c0-6.5-3.028-9.41-9.369-9.41s-9.369,3.354-9.369,9.41V234.1c0,6.5,3.028,9.41,9.369,9.41s9.369-2.413,9.369-7.487Zm-3.682-11.946c3.192,0,3.764,1.677,3.764,4.7h-7.651C164.051,225.879,164.623,224.079,167.937,224.079Z" transform="translate(-97.45 -170.494)"/>
      <path id="Path_210" data-name="Path 210" d="M553.607,147.069h5.359v3.069c0,3.11-1.431,4.828-5.523,4.828s-4.869-1.718-4.869-4.7V137.907c0-2.864.777-4.7,4.869-4.7,4.377,0,5.113,1.472,5.113,4.418H564.2c0-6.751-3.149-9.41-10.759-9.41s-10.513,2.987-10.513,9.41v12.641c0,6.79,3.028,9.777,10.513,9.777s10.759-2.987,10.759-9.9v-8.182H553.607Zm24.217,13.213c6.341,0,9.369-2.9,9.369-9.41v-5.81c0-6.5-3.028-9.41-9.369-9.41s-9.369,3.069-9.369,9.41v5.81C568.456,157.376,571.483,160.281,577.824,160.281Zm0-4.99c-2.946,0-3.723-1.718-3.723-4.7v-5.236c0-2.987.777-4.7,3.723-4.7s3.723,1.718,3.723,4.7v5.236C581.547,153.573,580.77,155.291,577.824,155.291Z" transform="translate(-455.962 -103.182)"/>
      <path id="Path_211" data-name="Path 211" d="M441.155,105.707a1.142,1.142,0,1,1-.841-2.124c3.5-1.4,6.056-1.439,7.682-.562A4,4,0,0,1,450.069,106a8.106,8.106,0,0,1-.508,4.039c-1.507,4.211-5.907,9.283-13.107,13.3l1.408,2.054c.359.623.207.951-.4,1.015l-3.535.133-3.5.131c-.677-.033-.888-.359-.683-.943l1.4-3.249,1.386-3.217c.318-.59.681-.592,1.085-.072l1.544,2.255c6.78-3.737,10.876-8.356,12.244-12.18a5.893,5.893,0,0,0,.41-2.883,1.791,1.791,0,0,0-.9-1.345c-1.056-.568-2.948-.449-5.753.67Z" transform="translate(-364.809 -82.438)" fill="#ff610f"/>
      <path id="Path_212" data-name="Path 212" d="M410.409,323.59a1.144,1.144,0,1,1,2.089-.933,6.933,6.933,0,0,0,1.3,1.97c2.021,2.13,5.39,2.784,9.425,2.405a46.894,46.894,0,0,0,14.074-4.125,74.146,74.146,0,0,0,18.242-11.534l-1.683-1.989c-.422-.584-.3-.925.3-1.05l3.5-.49,3.469-.484c.677-.035.919.267.775.869L460.84,311.6l-1.052,3.34c-.258.619-.619.658-1.072.182l-1.695-2A76.645,76.645,0,0,1,438.233,325a49.162,49.162,0,0,1-14.8,4.314c-4.713.441-8.732-.41-11.29-3.1a9.25,9.25,0,0,1-1.732-2.616Z" transform="translate(-349.232 -247.355)" fill="#ff610f"/>
    </g>
  </g>
</svg>
