<svg xmlns="http://www.w3.org/2000/svg" width="128" height="128" viewBox="0 0 128 128"><g transform="translate(-999 -1971)"><circle cx="64" cy="64" r="64" transform="translate(999 1971)" fill="#3e5272"/><g transform="translate(1036.8 2006.8)"><path d="M370.791,317.21H320.03a2.821,2.821,0,0,0-2.82,2.82v42.3a2.82,2.82,0,0,0,2.82,2.819h14.1c.012,0,.023-.007.034-.007a42.221,42.221,0,0,1,1.859,7.685.94.94,0,0,0,.927.782.944.944,0,0,0,.769-.4.935.935,0,0,0,.159-.7c-.563-3.319-1.418-8.336-3.827-11.672-.553-.766-1.35-2.162-.47-2.914a3.128,3.128,0,0,1,3.747.365c2.282,2.291,4.323,7.319,4.323,9.68a.94.94,0,1,0,1.88,0v-23.5a2.878,2.878,0,0,1,2.444-2.819c1.266,0,2.247,1.515,2.247,2.819v17.861a.94.94,0,1,0,1.88,0v-8.46a2.878,2.878,0,0,1,2.452-2.82c1.266,0,2.248,1.516,2.248,2.82v9.4a.94.94,0,0,0,1.88,0v-5.64a2.931,2.931,0,0,1,2.46-2.832c1.265,0,2.248,1.522,2.248,2.832v7.52a.94.94,0,0,0,1.88,0v-3.76a2.879,2.879,0,0,1,2.445-2.82c1.27,0,2.256,1.516,2.256,2.82v11.28a.94.94,0,1,0,1.88,0v-7.52h.94a2.82,2.82,0,0,0,2.82-2.819v-42.3a2.821,2.821,0,0,0-2.82-2.82ZM332.357,356.5a3.072,3.072,0,0,0-.973,3.009H322.85v-8.46h11.28v4.64A3.9,3.9,0,0,0,332.357,356.5Zm7.413,1.8v-7.249h1.88v10.384a19.6,19.6,0,0,0-1.88-3.135Zm6.2-18.529c-2.475,0-4.325,2.482-4.325,4.7v.94h-1.88v-8.46h11.28v8.46H350.1v-.94c0-2.223-1.7-4.7-4.132-4.7h0Zm19.74,16.92a3.914,3.914,0,0,0-2.445.9c-.021-2.217-1.708-4.667-4.12-4.667a3.9,3.9,0,0,0-2.46.923v-2.792h11.28V357.5a3.621,3.621,0,0,0-2.256-.808h0Zm6.017,5.641a.94.94,0,0,1-.94.94h-.94v-1.88a4.6,4.6,0,0,0-.052-.658.924.924,0,0,0,.052-.282v-9.4a1.88,1.88,0,0,0-1.88-1.88h-11.28a1.875,1.875,0,0,0-1.651,1,3.673,3.673,0,0,0-2.485-1,3.91,3.91,0,0,0-2.452.9V347.29h.948a1.88,1.88,0,0,0,1.88-1.88v-8.46a1.88,1.88,0,0,0-1.88-1.88h-11.28a1.88,1.88,0,0,0-1.88,1.88v8.46a1.88,1.88,0,0,0,1.88,1.88h1.88v1.88h-1.88a1.88,1.88,0,0,0-1.88,1.88v5.319a5.094,5.094,0,0,0-1.88-.7v-4.618a1.88,1.88,0,0,0-1.88-1.88h-11.28a1.88,1.88,0,0,0-1.88,1.88v8.46a1.88,1.88,0,0,0,1.88,1.88h9.306c.111.178.23.361.367.55a11.451,11.451,0,0,1,.815,1.329H320.028a.94.94,0,0,1-.94-.94v-42.3a.94.94,0,0,1,.94-.94h50.761a.94.94,0,0,1,.94.94v42.3ZM371.73,362.331Z" transform="translate(-317.21 -317.21)" fill="#fff" fill-rule="evenodd"/><path d="M372.221,475.46H360.94a1.88,1.88,0,0,0-1.88,1.88v8.46a1.88,1.88,0,0,0,1.88,1.88h11.28a1.88,1.88,0,0,0,1.88-1.88v-8.46a1.88,1.88,0,0,0-1.88-1.88ZM360.94,485.8v-8.46h11.28v8.46ZM360.94,485.8Z" transform="translate(-354.337 -457.6)" fill="#fff" fill-rule="evenodd"/><path d="M672.071,475.46H660.79a1.88,1.88,0,0,0-1.88,1.88v8.46a1.88,1.88,0,0,0,1.88,1.88h11.28a1.88,1.88,0,0,0,1.88-1.88v-8.46a1.88,1.88,0,0,0-1.88-1.88ZM660.79,485.8v-8.46h11.28v8.46ZM660.79,485.8Z" transform="translate(-620.346 -457.6)" fill="#fff" fill-rule="evenodd"/><path d="M672.071,350.52H660.79a1.88,1.88,0,0,0-1.88,1.88v8.46a1.88,1.88,0,0,0,1.88,1.88h11.28a1.88,1.88,0,0,0,1.88-1.88V352.4a1.88,1.88,0,0,0-1.88-1.88Zm-11.28,10.34V352.4h11.28v8.46ZM660.79,360.86Z" transform="translate(-620.346 -346.761)" fill="#fff" fill-rule="evenodd"/><path d="M522.151,350.52H510.87a1.88,1.88,0,0,0-1.88,1.88v8.46a1.88,1.88,0,0,0,1.88,1.88h11.28a1.88,1.88,0,0,0,1.88-1.88V352.4a1.88,1.88,0,0,0-1.88-1.88Zm-11.28,10.34V352.4h11.28v8.46ZM510.87,360.86Z" transform="translate(-487.346 -346.761)" fill="#fff" fill-rule="evenodd"/><path d="M372.221,350.52H360.94a1.88,1.88,0,0,0-1.88,1.88v8.46a1.88,1.88,0,0,0,1.88,1.88h11.28a1.88,1.88,0,0,0,1.88-1.88V352.4a1.88,1.88,0,0,0-1.88-1.88Zm-11.28,10.34V352.4h11.28v8.46ZM360.94,360.86Z" transform="translate(-354.337 -346.761)" fill="#fff" fill-rule="evenodd"/></g></g></svg>