<svg xmlns="http://www.w3.org/2000/svg" width="128" height="128" viewBox="0 0 128 128"><g transform="translate(-200 -2198)"><circle cx="64" cy="64" r="64" transform="translate(200 2198)" fill="#3e5272"/><g transform="translate(232.506 2230.506)"><path d="M1036.491,1362.611a1.235,1.235,0,1,0-.01,0ZM1036.491,1362.611Z" transform="translate(-1007.452 -1313.426)" fill="#fff" fill-rule="evenodd"/><path d="M661.34,922.521h8.571a1.23,1.23,0,0,0,0-2.461H661.34a1.23,1.23,0,0,0,0,2.461ZM661.34,922.521Z" transform="translate(-654.164 -898.971)" fill="#fff" fill-rule="evenodd"/><path d="M661.34,1040.79h2.868a1.23,1.23,0,0,0,0-2.46H661.34a1.23,1.23,0,0,0,0,2.46ZM661.34,1040.79Z" transform="translate(-654.164 -1010.352)" fill="#fff" fill-rule="evenodd"/><path d="M668.722,1156.61H661.34a1.23,1.23,0,0,0,0,2.46h7.382a1.23,1.23,0,1,0,0-2.46ZM668.722,1156.61Z" transform="translate(-654.164 -1121.742)" fill="#fff" fill-rule="evenodd"/><path d="M869.419,1156.61a1.231,1.231,0,1,0,.871.361A1.237,1.237,0,0,0,869.419,1156.61ZM869.419,1156.61Z" transform="translate(-850.124 -1121.742)" fill="#fff" fill-rule="evenodd"/><path d="M945.935,1156.61H943.07a1.23,1.23,0,0,0,0,2.46h2.865a1.23,1.23,0,0,0,0-2.46ZM945.935,1156.61Z" transform="translate(-919.483 -1121.742)" fill="#fff" fill-rule="evenodd"/><path d="M619.8,573.335h-2.43a16.657,16.657,0,0,0-1.521-3.669l1.72-1.719a1.23,1.23,0,0,0,0-1.74l-4.715-4.715a1.23,1.23,0,0,0-1.74,0l-1.719,1.72a16.683,16.683,0,0,0-3.669-1.522v-2.43a1.23,1.23,0,0,0-1.23-1.23h-6.667a1.231,1.231,0,0,0-1.23,1.23v2.424a16.663,16.663,0,0,0-3.676,1.52l-1.712-1.712a1.229,1.229,0,0,0-1.739,0l-4.714,4.715a1.226,1.226,0,0,0-.358.927H562.408a4.373,4.373,0,0,0-4.368,4.367v35.554a4.372,4.372,0,0,0,4.368,4.367h3.506a1.23,1.23,0,0,0,0-2.461h-3.506a1.909,1.909,0,0,1-1.907-1.907v-3.711h53.147v3.711a1.909,1.909,0,0,1-1.907,1.907H578.175a1.23,1.23,0,0,0,0,2.461h2.994v7.136H577a1.23,1.23,0,1,0,0,2.46h20.152a1.23,1.23,0,1,0,0-2.46H592.98v-7.136h18.761a4.372,4.372,0,0,0,4.368-4.367V591.049l1.459-1.459a1.231,1.231,0,0,0,0-1.74l-1.712-1.712a16.674,16.674,0,0,0,1.52-3.676H619.8a1.231,1.231,0,0,0,1.23-1.23v-6.667a1.23,1.23,0,0,0-1.23-1.23h0Zm-29.28,45.224h-6.889v-7.136h6.889Zm23.128-17.675H560.5V571.5a1.909,1.909,0,0,1,1.907-1.907H586.4l.059.059a16.673,16.673,0,0,0-1.529,3.681h-2.41a1.23,1.23,0,0,0-1.23,1.23v4.553h-2.555a1.23,1.23,0,0,0,0,2.46h2.606a1.23,1.23,0,0,0,1.18.884h2.405a16.721,16.721,0,0,0,1.449,3.545H572.6a1.23,1.23,0,0,0,0,2.461h11.823a1.226,1.226,0,0,0,.334,1.122l4.715,4.715a1.23,1.23,0,0,0,1.739,0l1.7-1.7a16.7,16.7,0,0,0,3.688,1.527v2.405a1.231,1.231,0,0,0,1.23,1.23h6.667a1.231,1.231,0,0,0,1.23-1.23v-2.41A16.679,16.679,0,0,0,609.4,592.6l1.707,1.707a1.231,1.231,0,0,0,1.74,0l.795-.8v7.375ZM618.567,580h-2.156a1.23,1.23,0,0,0-1.2.97,14.262,14.262,0,0,1-1.94,4.693,1.23,1.23,0,0,0,.165,1.534l1.522,1.522-2.974,2.974-1.517-1.517a1.23,1.23,0,0,0-1.536-.164,14.282,14.282,0,0,1-4.7,1.951,1.229,1.229,0,0,0-.968,1.2v2.141h-4.207v-2.137a1.23,1.23,0,0,0-.969-1.2,14.281,14.281,0,0,1-4.7-1.947,1.231,1.231,0,0,0-1.535.165l-1.51,1.51-2.974-2.975,1.51-1.51a1.23,1.23,0,0,0,.165-1.535,14.252,14.252,0,0,1-1.947-4.7,1.231,1.231,0,0,0-1.2-.97h-2.137v-4.207h2.141a1.23,1.23,0,0,0,1.2-.968,14.263,14.263,0,0,1,1.95-4.7,1.231,1.231,0,0,0-.164-1.536l-1.517-1.518,2.975-2.974,1.521,1.522a1.231,1.231,0,0,0,1.534.166,14.259,14.259,0,0,1,4.694-1.94,1.23,1.23,0,0,0,.969-1.2v-2.156h4.207v2.16a1.229,1.229,0,0,0,.968,1.2,14.261,14.261,0,0,1,4.686,1.944,1.23,1.23,0,0,0,1.535-.165l1.53-1.529,2.975,2.975-1.529,1.529a1.23,1.23,0,0,0-.165,1.535,14.272,14.272,0,0,1,1.944,4.687,1.23,1.23,0,0,0,1.2.968h2.16V580ZM618.567,580Z" transform="translate(-558.04 -558.03)" fill="#fff" fill-rule="evenodd"/><path d="M1119.282,709.04a11.072,11.072,0,1,0,11.072,11.072A11.085,11.085,0,0,0,1119.282,709.04Zm0,19.684a8.612,8.612,0,1,1,8.612-8.612A8.621,8.621,0,0,1,1119.282,728.724ZM1119.282,728.724Z" transform="translate(-1076.162 -700.243)" fill="#fff" fill-rule="evenodd"/><path d="M1278.4,945.94a1.231,1.231,0,1,0,.87.361A1.235,1.235,0,0,0,1278.4,945.94ZM1278.4,945.94Z" transform="translate(-1235.28 -923.344)" fill="#fff" fill-rule="evenodd"/><path d="M1235.657,881.77a4.937,4.937,0,0,0-3.514,1.455,1.23,1.23,0,0,0,1.74,1.739,2.507,2.507,0,0,1,3.546,0,1.23,1.23,0,0,0,1.74-1.739,4.934,4.934,0,0,0-3.514-1.455h0ZM1235.657,881.77Z" transform="translate(-1192.537 -862.912)" fill="#fff" fill-rule="evenodd"/><path d="M1181.433,812.79a1.23,1.23,0,0,0,1.74,1.74,6.685,6.685,0,0,1,9.455,0,1.23,1.23,0,1,0,1.739-1.74,9.157,9.157,0,0,0-12.935,0h0ZM1181.433,812.79Z" transform="translate(-1144.78 -795.431)" fill="#fff" fill-rule="evenodd"/><path d="M775.389,1432.39h-.038a1.23,1.23,0,0,0,0,2.461h.038a1.23,1.23,0,0,0,0-2.461ZM775.389,1432.39Z" transform="translate(-761.533 -1381.458)" fill="#fff" fill-rule="evenodd"/></g></g></svg>