<svg xmlns="http://www.w3.org/2000/svg" width="118.125" height="118.125" viewBox="0 0 118.125 118.125"><g transform="translate(-959.529 -2511.965)"><circle cx="59.063" cy="59.063" r="59.063" transform="translate(959.529 2511.965)" fill="#fbbc05"/><g transform="translate(980.214 2543.275)"><path d="M15208.6,1012.59v.863c1.656,1.824,3.345,4.254,4.934,6.353,1,1.315,3.965,5.744,5.3,6.3,1.985-1.051,5.123-3.728,7.055-5.226,3.674-2.853,4.849-4.7,7.9-3.935,3.484.87,17.87,4.8,20.5,4.034l28.287-15.728c1.868-1.264,1.758-1.99,2.779-3.752v-2.135c-.714-1.433-.356-1.751-1.577-3.063-3.432-3.691-7.386-.957-9.766.382-3.969,2.233-7.777,4.5-11.8,6.622-4.713,2.485-2.061,1.814-4.521,5.038-3.354,4.4-9.916,1.607-13.953.357-4.44-1.375-5.769-1.1-5.168-3.474,3.682-.941,16.771,7.681,18.251-.472.788-4.34-2.664-5.6-5.9-6.642-7.555-2.434-13.254-5.165-20.828-2.022C15225.046,998.184,15212.067,1010.461,15208.6,1012.59Z" transform="translate(-15208.598 -974.738)" fill="#fff" fill-rule="evenodd"/><g transform="translate(40.719)"><path d="M16017.954,622.415l-2.461.011c-.175-4.417-.015-5.7,1.861-8.9l3.683-.068.135,5.834C16019.951,619.963,16018.489,620.38,16017.954,622.415Zm4.586-8.942,2.913,0,.028,4.546-3.024-.042Zm-6.123-.363c-.8.559-1.178,1.881-1.572,2.895-.7,1.826-.45,1.746-2.652,2-2.956.338-5.472.337-7.422,1.986.221.231,1.859,1.184.558,2.078l-.878.347,0,2.077c1.709-1.681,3.905-2.83,6.577-1.212,1.133.685.737.6,1.563,1.462l5.509.027c.6-1.545.634-2.1,1.688-3.119a5.784,5.784,0,0,1,2.982-1.851,6.6,6.6,0,0,1,4.24.312,7.713,7.713,0,0,1,2.395,1.769l.377.383-.156-2.073c-1.362-.98-2.8-.624-2.97-2.279-.168-1.688-.175-3.146-.473-4.849.047-.024.126-.09.152-.047.006.013.673-.162.726-.473l0-2.046c-.931-.276-9.775-.2-11.166-.069a9.542,9.542,0,0,0,.069,2.215l.449.468Z" transform="translate(-16004.342 -610.308)" fill="#fff" fill-rule="evenodd"/><path d="M16289.56,807.228c3.766-.822,4.959,4.688,1.395,5.592C16287.128,813.79,16285.934,808.019,16289.56,807.228Zm-.374-2.791c-7.353,1.387-5.3,12.635,2.141,11.177,7.327-1.436,5.17-12.556-2.14-11.177Z" transform="translate(-16270.118 -794.366)" fill="#fff" fill-rule="evenodd"/><path d="M16005.632,866.113c2.653-1.186,3.944,2.8,1.663,3.823A2.085,2.085,0,1,1,16005.632,866.113Zm-.013-2.12a4.031,4.031,0,0,0-3.188,4.92,4.134,4.134,0,0,0,4.874,3.1C16012.279,871.022,16011.2,862.957,16005.619,863.994Z" transform="translate(-16002.33 -850.892)" fill="#fff" fill-rule="evenodd"/><path d="M16166.994,903.035h5.028l0-1.395-5.428-.051Z" transform="translate(-16158.173 -886.647)" fill="#fff" fill-rule="evenodd"/><path d="M16369.192,891.673a1.29,1.29,0,0,0,2.533-.484A1.29,1.29,0,1,0,16369.192,891.673Z" transform="translate(-16350.351 -875.758)" fill="#fff" fill-rule="evenodd"/><path d="M16063.277,926.173a.961.961,0,0,0-.952-1.172.952.952,0,0,0-.7,1.685A.982.982,0,0,0,16063.277,926.173Z" transform="translate(-16058.249 -908.856)" fill="#fff" fill-rule="evenodd"/></g></g></g></svg>