<svg xmlns="http://www.w3.org/2000/svg" width="118.125" height="118.125" viewBox="0 0 118.125 118.125"><g transform="translate(-200 -3491.766)"><circle cx="59.063" cy="59.063" r="59.063" transform="translate(200 3491.766)" fill="#fbbc05"/><g transform="translate(222.99 3514.747)"><path d="M501.668,19600.609h4.655v4.652H513.3v-4.652h4.655v16.289H501.668v-16.289Zm-51.2,0h4.945a2.291,2.291,0,0,0,2.037-2.039v-4.945h9.309v23.273H450.467Zm58.183,0h2.327v2.324H508.65Zm-53.564-5.273.035,2.945h-2.909Zm-.837-22.656c.373.559,2.777,3.578,2.909,4.07.922-.246,2.555-2.668,3.782-3.488,1.227.82,2.86,3.242,3.782,3.488.132-.492,2.536-3.512,2.909-4.07,1.887.438,3.227,2.9,3.636,4.656H450.612c.408-1.754,1.749-4.219,3.636-4.656Zm10.037.438a2.218,2.218,0,0,1-1.018-1.164c.519-.047.865-.293,1.164-.293.547,0,.275.1.873.145a6.379,6.379,0,0,1-1.018,1.313Zm-7.709-1.312c.578-.047.35-.145.727-.145.538,0,.7.242,1.309.293a2.2,2.2,0,0,1-1.018,1.164,6.379,6.379,0,0,1-1.018-1.312Zm2.909-3.781h2.909a10.178,10.178,0,0,1,.437,1.6c-3.446.8-.337.8-3.782,0a10.119,10.119,0,0,1,.437-1.6Zm51.492-1.164a1.166,1.166,0,0,1,2.328,0A1.166,1.166,0,0,1,510.977,19566.859Zm-13.964,0a1.165,1.165,0,0,1,2.327,0A1.165,1.165,0,0,1,497.013,19566.859Zm-39.565-2.473v-5.672h6.982v5.672a1.318,1.318,0,0,1-1.309,1.313h-4.364A1.317,1.317,0,0,1,457.449,19564.387Zm37.092,1.313h-2.182v-14.984a1.314,1.314,0,0,1,1.309-1.309h13.673a1.314,1.314,0,0,1,1.309,1.309v14.984h-6.836c-.881,0-.432-2.328-3.928-2.328-2.408,0-2.686,2.328-3.346,2.328Zm-26.765-4.656h-1.018v-2.328h1.018a1.172,1.172,0,1,1,0,2.328Zm-14.982-1.164a1.349,1.349,0,0,1,1.309-1.164h1.018v2.328H454.1A1.349,1.349,0,0,1,452.794,19559.879Zm18.473-1.164c3.216,0,2.473-3.32,2.473-5.234,1.808-.152,5.979-2.355,13.361-1.582.833.09,2.137.4,2.93.414v13.676a2.506,2.506,0,0,0,1.444,1.9,11.555,11.555,0,0,0,3.357.133,4.117,4.117,0,0,0,1.072,1.547,3.641,3.641,0,0,0,4.547,0,2.275,2.275,0,0,0,.664-.789c.215-.367.258-.758.7-.758H508.5c.445,0,.522.473.753.848a2.437,2.437,0,0,0,.87.879c.969.629,1.233.605,2.741.605a31.578,31.578,0,0,1,2.639,14.418c-.193,1.77-.07,1.684-.416,3.8a32.062,32.062,0,0,1-3.387,9.7H502.54c-2.421-.012-3.217.594-3.2,3.051v9.313a33.527,33.527,0,0,1-6.741,2.715,31.11,31.11,0,0,1-23.514-2.715v-16c0-1.043.127-1.594-.346-2.273a2.379,2.379,0,0,0-1.691-1.074H456.43c-1.171,0-1.276,1.066-2.182,1.313l-.717-2.922a30.474,30.474,0,0,1-.447-10.027H473.74v-1.742c0-3.82-2.93-6.816-6.418-7.984-2-.668-1.849-.215-2.191-1.3a4.055,4.055,0,0,1-.265-1.047c1.836-.488,1.891-2.621,1.891-4.215h1.454a3.442,3.442,0,0,0,3.2-3.2,3.993,3.993,0,0,0-.146-1.457Zm42.038,2.328h4.655v4.656c-4.174,0-1.738-.062-3.463-1.484a3.722,3.722,0,0,0-3.52-.7v-7.129h5.673c1.477,0,1.309,1.559,1.309,2.328h-4.655Zm-51.2-6.984h9.31v2.328H462.1Zm-2.327-.289v2.617h-4.655c0-2.883.753-5.2,3.343-6.4,2.684-1.246,5.993-.125,6.984,1.75-1.01,0-2.859-.113-3.77.012a2.416,2.416,0,0,0-1.9,2.023Zm-6.982,2.762c-1.612.855-2.327,1.516-2.327,3.637a3.439,3.439,0,0,0,3.2,3.2h1.454c0,1.6.055,3.73,1.891,4.219-.161,1.934-.8,1.883-1.453,2.039-3.967.949-7.42,4.117-7.42,8.289v1.746h2.473c0,.922-.145,1.215-.145,2.18a32.215,32.215,0,0,0,1.214,10.426c.878,3.031,1.3,1.828-1.541,4.668-.594.594-2,1.656-2,2.656v17.6a2.394,2.394,0,0,0,2.037,2.035H467.05a2.418,2.418,0,0,0,2.024-1.9c.126-.945.012-2.871.012-3.918a9.278,9.278,0,0,1,1.515.668c.576.238,1.059.422,1.561.621a33.969,33.969,0,0,0,20.7,1.1l4.865-1.68a10.555,10.555,0,0,1,1.619-.711c0,1.047-.114,2.973.012,3.918a2.418,2.418,0,0,0,2.024,1.9h16.873a2.287,2.287,0,0,0,2.037-2.035v-16.875a2.426,2.426,0,0,0-1.9-2.027c-.944-.125-2.868-.008-3.916-.008l1.289-3.078a34.176,34.176,0,0,0,1.123-20.719,39.456,39.456,0,0,0-1.763-4.945c-.279-.691-.335-.184.37-1.516a11.812,11.812,0,0,0,3.253-.094,2.5,2.5,0,0,0,1.548-1.941v-8.727a3.443,3.443,0,0,0-3.2-3.2h-6.109v-3.781a3.442,3.442,0,0,0-3.2-3.2H493.232a3.587,3.587,0,0,0-2.065.844,4.743,4.743,0,0,0-1.135,1.918c-.635-.012-1.557-.215-2.195-.277a34.28,34.28,0,0,0-15.053,1.793c-1.494.59-2.089.375-4.135.375-.458,0-.558-.4-.738-.715a7.834,7.834,0,0,0-.591-.867,8.185,8.185,0,0,0-14.133,2.414,10.349,10.349,0,0,0-.394,3.969Z" transform="translate(-448.14 -19547.061)" fill="#fff" fill-rule="evenodd"/><path d="M978.267,20065.539l-2.583-2.652-1.6,1.668,4.439,4.512,3.857-4.361c.347-.357.4-.523.723-.877.28-.3.531-.484.795-.8.366-.445.3-.664.916-.828.489,2.1,1.046,2.844-.057,5.615a7.165,7.165,0,0,1-6.343,4.129,8.981,8.981,0,0,1-2.852-.639,7.133,7.133,0,0,1-4.13-6.344,6.982,6.982,0,0,1,9.728-6.385,5.793,5.793,0,0,1,2.054,1.439,38.2,38.2,0,0,1-3.015,3.529c-.245.254-.428.393-.657.654a5.969,5.969,0,0,1-1.274,1.344Zm6.691-7.273c-1.341-.9-2.824-2.619-5.964-2.619-3.019,0-5,.561-7.164,2.729a8.942,8.942,0,0,0-1.854,2.508,9.316,9.316,0,0,0,1.854,10.658,8.08,8.08,0,0,0,2.528,1.836,9.582,9.582,0,0,0,8.128.018,9.474,9.474,0,0,0,5.236-7.855,8.756,8.756,0,0,0-1.309-5.381l3.346-3.781c-.721-.482-.865-.99-1.746-1.455l-3.054,3.344Z" transform="translate(-942.34 -20028.867)" fill="#fff" fill-rule="evenodd"/><path d="M538.85,20819.928h11.637v-2.328H538.85Z" transform="translate(-534.197 -20752.422)" fill="#fff" fill-rule="evenodd"/><path d="M538.85,20638.43h11.637v-2.332H538.85Z" transform="translate(-534.197 -20580.229)" fill="#fff" fill-rule="evenodd"/><path d="M538.85,20729.223h11.637v-2.322H538.85Z" transform="translate(-534.197 -20666.373)" fill="#fff" fill-rule="evenodd"/><path d="M674.95,20547.727H679.6v-2.326H674.95Z" transform="translate(-663.315 -20494.186)" fill="#fff" fill-rule="evenodd"/></g></g></svg>