<svg xmlns="http://www.w3.org/2000/svg" width="118.125" height="118.125" viewBox="0 0 118.125 118.125"><g transform="translate(-200 -3001.863)"><circle cx="59.063" cy="59.063" r="59.063" transform="translate(200 3001.863)" fill="#fbbc05"/><g transform="translate(221.31 3033.208)"><path d="M842.461,10236.792c-2.2,0-2.831-1.076-2.831-3.021,0-3.375,6.359-2.605,5.076,1.287A2.612,2.612,0,0,1,842.461,10236.792Zm-7.55-2.454a7.059,7.059,0,0,0,11.142,5.857c1.7-1.216,5.179-5.526,6.625-7.343.425-.533.8-1.06,1.254-1.577l1.8-2.166a65.362,65.362,0,0,1,16.066-13.38c3.955-2.351,8.471-.324,12.7-3.91a9.822,9.822,0,0,0,2.7-2.958c1.473-2.815,1.693-5.877,1.693-10.01a1.362,1.362,0,0,0-1.51-1.132c-1.014,0-1.729,1.068-2.312,1.651l-3.964,3.963c-2.344,2.345-.9,2.122-7.069,1.124-2.267-.367-1.727.659-2.332-3.709-.156-1.124-.309-2.537-.556-3.6.8-.535,4.675-4.581,5.9-5.8,1.015-1.015,1.652-1.2,1.652-2.689,0-2.694-9.906-.117-11.25.641-4,2.259-5.337,6.613-5.548,11.063-.126,2.661-.217,2.5-1.133,4.341a36.766,36.766,0,0,1-3.264,5.041l-5.089,5.859c-.52.514-.9.9-1.416,1.414l-5.756,5.381c-.556.568-.881.722-1.418,1.225l-1.51,1.32c-3.519,3.294-7.407,5.105-7.407,9.393Z" transform="translate(-813.388 -10186.076)" fill="#fff" fill-rule="evenodd"/><path d="M434.458,10165.737a15,15,0,0,0-4.719,1.887c-4.773-3.2-3.743-3.854-7.061.112-1.791,2.139-4.205,1.76-1.622,5.173.477.632.876,1.223,1.321,1.888-.2.869-1.379,2.728-1.887,4.908a26.591,26.591,0,0,0-4.347.748c-1.26.64-.56,2.45-.56,4.725,0,3.867-1.212,3.775,3.456,4.472,2.051.307,1.424.464,2.069,2.084,1.358,3.408,1.93,2.253,0,4.823-1.559,2.077-1.644,2.581-.114,3.783,4.663,3.663,3.221,5.513,6.855,2.957,2.356-1.656,1.377-1.625,4.088-.31a13.419,13.419,0,0,0,2.52.877c.176.758.265,1.587.4,2.428.16.977.033,1.592.729,2.1,0-5.59,7.478-8.7,7.928-10.382-2.373,1.138-7.312.464-9.693-.688a15.093,15.093,0,0,1-2.165-1.232,14.018,14.018,0,0,1-1.844-1.554,15.5,15.5,0,0,1-2.776-4.02c-6.362-14.869,12.086-25.9,22.284-15.678a13.768,13.768,0,0,1,3.934,12.338,25.361,25.361,0,0,1-.68,2.529,16.5,16.5,0,0,0,2.221-2.12c.486-.492.584-.752,1.033-1.232a36.137,36.137,0,0,0,4.862-6.463c-2.4,0-2.075-.705-2.171-1.036a15.912,15.912,0,0,0-1.55-3.549,1.563,1.563,0,0,0-.243-.322c.592-.884,2.643-3.487,2.643-4.153,0-1.1-2.065-2.027-4.093-4.589-.732-.924-1.323-1.748-2.652-.84-4.1,2.8-2.295,2.45-5.336,1.088-2.436-1.091-2.439-.161-2.689-1.652-.919-5.482,0-4.2-6.56-4.2-2.844,0-2.716-.61-3.264,3.153-.069.475-.276,1.388-.323,1.943Z" transform="translate(-415.389 -10160.51)" fill="#fff" fill-rule="evenodd"/><path d="M684.875,10436.216a5.111,5.111,0,0,1-4.4-1.644,5.4,5.4,0,1,1,7.933-.1A5.853,5.853,0,0,1,684.875,10436.216Zm-.566,5.662a11.378,11.378,0,0,0,5.962-1.775c2.37-1.437,4.985-4.964,4.985-8.228,0-3.789-.449-6.021-3.16-8.731a11.075,11.075,0,0,0-12.576-2.1,10.612,10.612,0,0,0-3.094,2.379c-1.789,1.769-3.266,5.275-3.021,7.637.438,4.215,2.36,8.092,6.449,9.8a12.811,12.811,0,0,0,4.454,1.019Z" transform="translate(-660.144 -10406.642)" fill="#fff" fill-rule="evenodd"/></g></g></svg>