<svg xmlns="http://www.w3.org/2000/svg" width="118.125" height="118.125" viewBox="0 0 118.125 118.125"><g transform="translate(-200 -2511.965)"><circle cx="59.063" cy="59.063" r="59.063" transform="translate(200 2511.965)" fill="#fbbc05"/><g transform="translate(223.014 2546.903)"><g transform="translate(14.25 0.205)"><path d="M761.37,712.227l-5.535.025c-.39-9.928-.033-12.806,4.184-19.995l8.278-.153.3,13.112C765.856,706.717,762.569,707.656,761.37,712.227Zm10.3-20.1,6.55-.006.061,10.216-6.8-.094.187-10.116Zm-13.763-.815c-1.783,1.257-2.645,4.227-3.526,6.505-1.586,4.1-1.013,3.924-5.964,4.491-6.642.76-12.3.758-16.679,4.463.5.521,4.177,2.661,1.253,4.67l-1.974.778.011,4.668c3.839-3.778,8.776-6.361,14.782-2.723,2.542,1.54,1.655,1.349,3.507,3.285l12.386.062c1.353-3.472,1.422-4.711,3.793-7.009,1.905-1.847,3.207-3.239,6.7-4.16a14.819,14.819,0,0,1,9.527.7,17.3,17.3,0,0,1,5.382,3.976l.846.861-.351-4.659c-3.059-2.2-6.3-1.4-6.672-5.121-.378-3.794-.393-7.071-1.062-10.9.106-.052.283-.2.339-.106.018.03,1.513-.364,1.633-1.061l0-4.6c-2.091-.619-21.968-.448-25.1-.155.008,1.124-.227,4.078.159,4.977l1.009,1.053Z" transform="translate(-730.782 -685.021)" fill="#fff" fill-rule="evenodd"/><path d="M1371.765,1127.575c8.462-1.847,11.144,10.537,3.135,12.567C1366.3,1142.323,1363.616,1129.354,1371.765,1127.575Zm-.841-6.272c-16.523,3.116-11.908,28.394,4.808,25.12C1392.2,1143.2,1387.353,1118.205,1370.924,1121.3Z" transform="translate(-1328.079 -1098.67)" fill="#fff" fill-rule="evenodd"/><path d="M733.8,1259.912c5.963-2.664,8.865,6.285,3.739,8.591C732.005,1271,727.678,1262.649,733.8,1259.912Zm-.025-4.763a9.06,9.06,0,0,0-7.17,11.057,9.294,9.294,0,0,0,10.956,6.963C748.743,1270.945,746.32,1252.82,733.779,1255.149Z" transform="translate(-726.383 -1225.705)" fill="#fff" fill-rule="evenodd"/><path d="M1096.431,1342.867l11.3,0,.007-3.134-12.2-.115Z" transform="translate(-1076.602 -1306.039)" fill="#fff" fill-rule="evenodd"/><path d="M1550.832,1317.33c.531,3.478,6.179,2.882,5.694-1.087C1556.089,1312.654,1550.184,1313.089,1550.832,1317.33Z" transform="translate(-1508.49 -1281.564)" fill="#fff" fill-rule="evenodd"/><path d="M863.333,1394.863a2.158,2.158,0,0,0-2.135-2.634c-2.59.131-2.949,2.592-1.582,3.786a2.205,2.205,0,0,0,3.716-1.153Z" transform="translate(-852.038 -1355.947)" fill="#fff" fill-rule="evenodd"/></g><path d="M454.837,874.927c0,.966.526.074.449,1.606a20.546,20.546,0,0,0-.213,2.169c-.794-.582-1.4-3.355-2.123-4.72a4.067,4.067,0,0,0-2.875,1.844c-.964,1.279-1.522,6.883-1.466,7.884.084,1.5,1.7,1.258,3.161,1.6,0,3.258.472,6.316.472,9.438.486.326.612.708,1.179.708,7.947,0,5.6,1.242,6.383-8.246.061-.738.353-8.281.7-8.979.09-.183-.038-.529,1.066-.821a37.381,37.381,0,0,1,5.955-.051c1.328.081,1.236-.478,1.8-1.9.523-1.31.143-1.714-1.508-1.714h-8.258c-.692,0-.743.5-.931.957l-1.665,4c-.064-.766-.472-2.3-.239-2.963.165-.469.476.245.476-1.285,0-.941-.668-.708-2.36-.708v1.18Z" transform="translate(-448.605 -863.837)" fill="#fff" fill-rule="evenodd"/><path d="M501.1,685.513c0,6.244,9.2,6.011,9.2.472v-1.18a4.405,4.405,0,0,0-3.775-3.775h-1.18A4.483,4.483,0,0,0,501.1,685.513Z" transform="translate(-498.407 -681.03)" fill="#fff" fill-rule="evenodd"/></g></g></svg>