<svg xmlns="http://www.w3.org/2000/svg" width="118.125" height="118.125" viewBox="0 0 118.125 118.125"><g transform="translate(-959.529 -3001.863)"><circle cx="59.063" cy="59.063" r="59.063" transform="translate(959.529 3001.863)" fill="#ffd55f"/><g transform="translate(978.038 3035.899)"><path d="M15174.435,10233.335c0-2.449,1.308-6.416,2.072-8.332,2.214-5.545,5.763-4.456,13.1-4.456a.834.834,0,0,1,.867.867v12.571a.834.834,0,0,1-.867.867h-13.438c-1,0-1.732-.48-1.732-1.518Zm54.62-1.733c0-2.826,4.418-4,5.706-1.152a3.177,3.177,0,0,1-.563,3.478A3.044,3.044,0,0,1,15229.055,10231.6Zm-10.187-14.088c0-1.364,2.818-2.825,2.818.434C15221.686,10219.454,15218.867,10219.245,15218.867,10217.514Zm-3.034-.651c-1.444.031-2.715.751-4.118.867a6.868,6.868,0,0,0-9.417-2.266c-.519.354-1.853,1.409-1.853,2.048,0,2.02,4.943-.726,6.856,2.247,1.555,2.415-.886,4.794-3.149,5.58-1,.345-.955.186-1.541,1.061,1.777,3.356,9.971,1.109,9.971-5.2a23.2,23.2,0,0,0,3.9-.867c1.554,1.041,1.378,1.95,4.333,1.95l4.222,6.632c1.133,1.651-.969,2.731.944,6.194a25.687,25.687,0,0,0,1.988,2.564c-3.343,0-7.988-.744-8.976,1.228a2.165,2.165,0,0,0,.3,2.457h-23.408v-20.808c0-2.514-1.4-4.551-3.9-4.551-7.252,0-10.81-.919-15.705,2.936-5.311,4.179-7.135,19.641-7.8,20.595-.3.438-1.205.639-1.205,3.346a4.546,4.546,0,0,0,.254,1.7c.249.726.424.628.613,1.337-2.25,0-1.951,1.822-1.951,4.552,0,2.072,1.446,4.553,4.118,4.553,2.173,0,1.681.039,1.74-1.947a9.56,9.56,0,0,1,.447-2.369c2.336-7.484,12.017-10.026,17.377-4.628,2.662,2.68,3.41,4.667,3.41,8.727h26.876c0-4,.8-6.106,3.3-8.618a10.725,10.725,0,0,1,15.392.544c1.421,1.6,3.216,5.2,2.547,8.074,2.332,0,3.125.264,4.4-1.017,1.522-1.526,1.826-4.948,1.12-6.891-.295-.816-.271-.9-1.187-.979,0-3.278.529-4.429-.844-4.573-.426-.045-1.473.022-1.973.022,2.437-4.606-4.422-3.686-6.937-3.686.514-.765.541-.437,1.115-1.052a6.965,6.965,0,0,0,.887-8.319c-1.358-2.242-3.482-3.054-5.95-3.37-1.943-.248-.917-.329-2.834-1.933l-3.692-3.247c-.789-.8-.615-.45-.462-1.669C15225.856,10211.735,15215.957,10211.254,15215.833,10216.862Z" transform="translate(-15166.186 -10212.966)" fill="#fff" fill-rule="evenodd"/><path d="M16259.573,10855.473c-1.551,0-2.411,0-3.566-1.2-2.055-2.135-1.745-7.034,3.349-7.034,3.342,0,5.021,4.36,2.881,6.781A4.383,4.383,0,0,1,16259.573,10855.473Zm-.65,4.77a8.955,8.955,0,0,0,8.887-9.1c0-7.569-9.445-11.682-15.127-6.024a8.76,8.76,0,0,0-1.808,9.736,9.112,9.112,0,0,0,8.049,5.391Z" transform="translate(-16194.533 -10810.184)" fill="#fff" fill-rule="evenodd"/><path d="M15314.916,10856.138c0-5.689,5.21-5.381,7-3.75,2.558,2.328.928,7.217-2.231,7.217h-1.3a4.048,4.048,0,0,1-3.469-3.468Zm-4.768-.651c0,4.248,3.677,8.671,7.8,8.671,3.407,0,4.919.06,7.645-2.76,5.221-5.4,1.036-14.8-6.562-14.8a9.05,9.05,0,0,0-8.886,8.887Z" transform="translate(-15302.763 -10814.094)" fill="#fff" fill-rule="evenodd"/><path d="M15445.3,10984.172c0,2.116,3.9,2.469,3.9-.217A1.956,1.956,0,1,0,15445.3,10984.172Z" transform="translate(-15430.98 -10942.565)" fill="#fff" fill-rule="evenodd"/><path d="M16387.164,10981.452a1.951,1.951,0,1,0,0-3.9C16384.582,10977.551,16384.824,10981.452,16387.164,10981.452Z" transform="translate(-16322.773 -10938.327)" fill="#fff" fill-rule="evenodd"/><circle cx="1.819" cy="1.819" r="1.819" transform="translate(18.215 9.721)" fill="#fff"/><path d="M15503.243,10485.4h1.932a1.267,1.267,0,0,1,1.263,1.263v6.809a1.056,1.056,0,0,1-1.052,1.054h-4.283a1.056,1.056,0,0,1-1.052-1.054v-4.878A3.2,3.2,0,0,1,15503.243,10485.4Z" transform="translate(-15482.923 -10471.424)" fill="#fff" fill-rule="evenodd"/><rect width="1.23" height="8.282" rx="0.615" transform="translate(10.092 14.858) rotate(-30)" fill="#fff"/><rect width="0.925" height="6.227" rx="0.462" transform="translate(7.578 21.635) rotate(-120)" fill="#fff"/><rect width="1.636" height="8.261" rx="0.818" transform="translate(12.539 19.588) rotate(-90)" fill="#fff"/></g></g></svg>