<svg xmlns="http://www.w3.org/2000/svg" width="148.165" height="148.165" viewBox="0 0 148.165 148.165"><g transform="translate(-869.182 -1140.338)"><circle cx="74.083" cy="74.083" r="74.083" transform="translate(869.182 1140.338)" fill="#ff610f"/><path d="M56785.137,52424.824a1.857,1.857,0,0,1,.25-.219,1.248,1.248,0,0,1,.258-.148,2.793,2.793,0,0,1,.395-.16,1.6,1.6,0,0,1,.41-.062,1.513,1.513,0,0,1,.418.051,2.913,2.913,0,0,1,.406.156l.02.008a1.75,1.75,0,0,1,.617.449,2.026,2.026,0,0,1,.363.766,5.577,5.577,0,0,1,.125.945c.027.379.035.824.035,1.375v1.313h1.316c.246,0,.52,0,.8.016s.531.02.746.035c.238.023.453.043.637.07a2.077,2.077,0,0,1,.445.105l.02.016a1.719,1.719,0,0,1,.5.352,1.808,1.808,0,0,1,.355.508,1.758,1.758,0,0,1,.141.41,2.113,2.113,0,0,1,.051.434,1.991,1.991,0,0,1-.191.848,1.832,1.832,0,0,1-.355.508,1.856,1.856,0,0,1-.5.352l-.02.012a2.3,2.3,0,0,1-.445.109c-.18.027-.395.047-.637.07-.211.012-.465.027-.746.035s-.555.012-.8.012h-1.316v1.316c0,.563-.008,1.023-.035,1.41a5.105,5.105,0,0,1-.141.961,1.812,1.812,0,0,1-.395.77,1.731,1.731,0,0,1-.656.438,1.992,1.992,0,0,1-.7.141,1.951,1.951,0,0,1-.7-.129,1.88,1.88,0,0,1-.609-.371,1.681,1.681,0,0,1-.4-.539l-.023-.043a9.3,9.3,0,0,1-.176-1.9c-.039-1.109-.055-2.562-.055-3.988s.016-2.875.055-3.992a9.135,9.135,0,0,1,.176-1.906l.008-.02a1.541,1.541,0,0,1,.156-.262A2.06,2.06,0,0,1,56785.137,52424.824Zm-5.8,55.746h8.355v8.9Zm15.977-55.746a1.5,1.5,0,0,1,.25-.219,1.241,1.241,0,0,1,.25-.148,2.828,2.828,0,0,1,.4-.16,1.6,1.6,0,0,1,.41-.062,1.531,1.531,0,0,1,.418.051,2.584,2.584,0,0,1,.406.156l.023.008a1.7,1.7,0,0,1,.613.449,1.863,1.863,0,0,1,.359.766,5.476,5.476,0,0,1,.133.945c.023.379.031.824.031,1.375v1.313h1.313c.254,0,.527,0,.8.016s.535.02.75.035c.238.02.457.043.641.07a1.93,1.93,0,0,1,.438.105l.023.016a1.738,1.738,0,0,1,.5.352,1.794,1.794,0,0,1,.352.508,1.959,1.959,0,0,1,.141.41,2.1,2.1,0,0,1,.047.434,1.943,1.943,0,0,1-.187.848,1.741,1.741,0,0,1-.352.508,1.817,1.817,0,0,1-.5.352l-.023.012a2.057,2.057,0,0,1-.437.109c-.184.027-.4.047-.637.07-.219.012-.473.027-.754.035s-.551.012-.8.012h-1.312v1.316c0,.563-.008,1.023-.035,1.41a5.487,5.487,0,0,1-.137.961,1.816,1.816,0,0,1-.4.77,1.716,1.716,0,0,1-.66.438,1.881,1.881,0,0,1-1.4.012,1.88,1.88,0,0,1-.609-.371,1.671,1.671,0,0,1-.4-.539l-.02-.043a8.783,8.783,0,0,1-.184-1.9c-.035-1.109-.059-2.562-.059-3.988s.023-2.879.059-3.992a9.757,9.757,0,0,1,.176-1.906l.008-.02a2.265,2.265,0,0,1,.152-.262,2.155,2.155,0,0,1,.215-.246Zm10.176,0a2.1,2.1,0,0,1,.246-.219,1.272,1.272,0,0,1,.262-.148,2.759,2.759,0,0,1,.391-.16,1.657,1.657,0,0,1,.41-.062,1.541,1.541,0,0,1,.422.051,2.913,2.913,0,0,1,.406.156l.016.008a1.683,1.683,0,0,1,.617.449,1.972,1.972,0,0,1,.367.766,5.2,5.2,0,0,1,.125.945c.023.379.035.824.035,1.375v1.313h1.309c.563,0,1.023.008,1.41.035a5.053,5.053,0,0,1,.965.141,1.642,1.642,0,0,1,1.207,1.051,1.883,1.883,0,0,1,.137.7,1.986,1.986,0,0,1-.5,1.316,1.7,1.7,0,0,1-.562.414l-.023.012a2.173,2.173,0,0,1-.441.109c-.184.027-.4.047-.637.07-.211.012-.465.027-.75.035s-.555.012-.809.012h-1.309v1.316c0,.563-.016,1.023-.035,1.41a5.105,5.105,0,0,1-.141.961,1.642,1.642,0,0,1-1.051,1.207,2.01,2.01,0,0,1-.7.141,1.951,1.951,0,0,1-.7-.129,1.9,1.9,0,0,1-.613-.371,1.8,1.8,0,0,1-.4-.539l-.02-.043a8.995,8.995,0,0,1-.176-1.9c-.039-1.113-.062-2.566-.062-3.992s.023-2.879.063-3.992a8.853,8.853,0,0,1,.176-1.906l.008-.02a2.057,2.057,0,0,1,.359-.508Zm10.176,0a2.132,2.132,0,0,1,.25-.219,1.272,1.272,0,0,1,.262-.148,2.759,2.759,0,0,1,.391-.16,1.6,1.6,0,0,1,.41-.062,1.468,1.468,0,0,1,.414.051,2.616,2.616,0,0,1,.41.156l.023.008a1.735,1.735,0,0,1,.613.449,1.913,1.913,0,0,1,.359.766,5.16,5.16,0,0,1,.129.945c.027.379.035.824.035,1.375v1.313h1.313c.254,0,.527,0,.8.016s.535.02.746.035c.242.02.461.043.645.07a1.986,1.986,0,0,1,.438.105l.023.016a1.738,1.738,0,0,1,.563.414,1.917,1.917,0,0,1,.375.609,2,2,0,0,1,.121.7,1.94,1.94,0,0,1-.133.691l0,0a1.716,1.716,0,0,1-.437.66,1.766,1.766,0,0,1-.77.391,4.393,4.393,0,0,1-.961.145c-.387.027-.848.031-1.41.031h-1.312v1.316c0,.563-.008,1.023-.035,1.41a5.072,5.072,0,0,1-.145.961,1.622,1.622,0,0,1-1.051,1.207,1.958,1.958,0,0,1-.7.141,1.93,1.93,0,0,1-.7-.129,1.9,1.9,0,0,1-.613-.371,1.671,1.671,0,0,1-.4-.539l-.023-.043a9.431,9.431,0,0,1-.172-1.9c-.043-1.109-.062-2.562-.062-3.988s.02-2.879.059-3.992a9.9,9.9,0,0,1,.172-1.906l.008-.02a2.31,2.31,0,0,1,.156-.262A2.091,2.091,0,0,1,56815.668,52424.824Zm10.574-.312.1-.051a3.371,3.371,0,0,1,.4-.164,1.657,1.657,0,0,1,.41-.062,1.387,1.387,0,0,1,.4.051,2.269,2.269,0,0,1,.336.113H56830l-1.34.559.027.043a2.079,2.079,0,0,1,.289.664,5.526,5.526,0,0,1,.129.945c.02.379.031.824.031,1.375v1.313h1.313c.25,0,.527,0,.8.016s.535.02.754.035c.234.02.449.043.633.07a2.018,2.018,0,0,1,.445.105l.023.016a1.644,1.644,0,0,1,.559.414,1.914,1.914,0,0,1,.5,1.313,1.788,1.788,0,0,1-.137.691v0a1.768,1.768,0,0,1-.441.66,1.745,1.745,0,0,1-.77.391,4.355,4.355,0,0,1-.961.145c-.391.027-.848.031-1.41.031h-1.312v1.316c0,.563-.012,1.023-.031,1.41a5.448,5.448,0,0,1-.141.961,1.816,1.816,0,0,1-.4.77,1.731,1.731,0,0,1-.656.438,1.992,1.992,0,0,1-.7.141,1.951,1.951,0,0,1-.7-.129,1.88,1.88,0,0,1-.609-.371,1.74,1.74,0,0,1-.4-.539l-.02-.043a8.734,8.734,0,0,1-.176-1.9c-.039-1.109-.062-2.562-.062-3.988s.023-2.879.063-3.992c.02-.637.055-1.164.094-1.512h-1.633Zm9.781.313a1.829,1.829,0,0,1,.246-.219,1.382,1.382,0,0,1,.262-.148,2.793,2.793,0,0,1,.395-.16,1.574,1.574,0,0,1,.406-.062,1.5,1.5,0,0,1,.418.051,2.68,2.68,0,0,1,.418.156l.008.008a1.7,1.7,0,0,1,.621.449,1.94,1.94,0,0,1,.359.766,5.16,5.16,0,0,1,.129.945c.023.379.031.824.031,1.375v1.3l1.773.047c.539.008.969.023,1.3.039.359.02.637.039.871.07a3.494,3.494,0,0,1,.656.137,2.877,2.877,0,0,1,.527.23,4.861,4.861,0,0,1,.617.395,5.178,5.178,0,0,1,.547.48,4.494,4.494,0,0,1,.48.563,5.227,5.227,0,0,1,.4.637,2.165,2.165,0,0,1,.23.844c.051.41.086,1.063.105,2.184.027,1.07.039,2.6.051,4.8s.023,5.09.035,8.863c.008,2.82.016,5.227.012,7.254s-.012,3.684-.023,4.992c-.008,1.324-.031,2.309-.051,2.984a5.668,5.668,0,0,1-.125,1.266l0,0a1.6,1.6,0,0,1-.352.551,1.821,1.821,0,0,1-.535.383,1.908,1.908,0,0,1-.383.125,1.578,1.578,0,0,1-.4.051,2.341,2.341,0,0,1-.406-.027,1.949,1.949,0,0,1-.957-.473,1.8,1.8,0,0,1-.395-.543l-.008-.031a3.418,3.418,0,0,1-.125-.887c-.027-.434-.043-1.066-.059-1.91s-.027-1.859-.035-3.1c-.008-1.4-.012-2.844-.012-4.363v-8.945h-64.8v14.035c0,2.359,0,4.578-.008,6.723-.008,1.891-.02,3.438-.035,4.688s-.035,2.152-.059,2.773a4.967,4.967,0,0,1-.125,1.168l-.008.02a1.791,1.791,0,0,1-1.355,1.016,1.952,1.952,0,0,1-.4.035,2.354,2.354,0,0,1-.4-.047,1.741,1.741,0,0,1-.379-.133,1.833,1.833,0,0,1-.539-.375,1.748,1.748,0,0,1-.352-.551,7.712,7.712,0,0,1-.125-1.539c-.027-.867-.043-2.148-.059-3.891-.012-1.715-.016-3.891-.02-6.566s0-5.863.008-9.6c.012-5.012.027-8.832.035-11.742s.027-4.926.051-6.32c.023-1.445.059-2.266.109-2.766a2.248,2.248,0,0,1,.234-.953,4.914,4.914,0,0,1,.395-.637,4.792,4.792,0,0,1,.48-.562,4.074,4.074,0,0,1,.551-.484,4.679,4.679,0,0,1,.617-.391,3.237,3.237,0,0,1,.492-.215,3.7,3.7,0,0,1,.586-.141c.2-.031.434-.055.7-.078.25-.016.566-.035.945-.043.539-.02.984-.027,1.352-.008a4.353,4.353,0,0,1,.957.125,1.692,1.692,0,0,1,1.227,1.07,1.928,1.928,0,0,1,.152.688,1.9,1.9,0,0,1-.121.711,1.793,1.793,0,0,1-.371.613,1.72,1.72,0,0,1-.559.418l-.031.012a2.037,2.037,0,0,1-.4.109c-.152.027-.344.047-.555.07-.18.012-.391.027-.629.035s-.461.012-.664.012c-.375,0-.656,0-.84.012a2.544,2.544,0,0,0-.437.039.219.219,0,0,0-.086.035.535.535,0,0,0-.121.105l-.211.2v8.434h64.8v-8.434l-.207-.2a.812.812,0,0,0-.113-.105.347.347,0,0,0-.129-.035,5.465,5.465,0,0,0-.617-.043c-.246,0-.652-.008-1.2-.008h-1.473v1.316c0,.563-.008,1.023-.035,1.41a4.8,4.8,0,0,1-.141.961,1.729,1.729,0,0,1-.395.77,1.7,1.7,0,0,1-.656.438,1.975,1.975,0,0,1-.7.141,1.915,1.915,0,0,1-.7-.129,1.857,1.857,0,0,1-.613-.371,1.73,1.73,0,0,1-.4-.539l-.023-.043a9.167,9.167,0,0,1-.18-1.9c-.035-1.113-.055-2.566-.055-3.992s.02-2.879.055-3.992a9.436,9.436,0,0,1,.176-1.906l.008-.02a1.849,1.849,0,0,1,.156-.262,2.519,2.519,0,0,1,.2-.246Zm-43.145,26.09a3.066,3.066,0,0,1,.5-.527,3.276,3.276,0,0,1,.621-.406,2.9,2.9,0,0,1,.813-.277,2.94,2.94,0,0,1,.867-.023,3.556,3.556,0,0,1,.773.191,3.468,3.468,0,0,1,.719.391,3.26,3.26,0,0,1,1.059,1.2,3.123,3.123,0,0,1,.293.855,3.025,3.025,0,0,1,.031.883,3.373,3.373,0,0,1-.207.832,2.921,2.921,0,0,1-.422.746,3.421,3.421,0,0,1-.578.586,3.363,3.363,0,0,1-.711.426,3.327,3.327,0,0,1-.8.23,3.176,3.176,0,0,1-.816.02,2.8,2.8,0,0,1-.809-.2,2.849,2.849,0,0,1-.73-.414,3.058,3.058,0,0,1-.527-.5,3.334,3.334,0,0,1-.395-.594,3.112,3.112,0,0,1-.3-.852,3.178,3.178,0,0,1-.043-.9,3.107,3.107,0,0,1,.211-.879A3.042,3.042,0,0,1,56792.879,52450.914Zm10.176,0a3.473,3.473,0,0,1,1.125-.93,2.734,2.734,0,0,1,.813-.273,2.826,2.826,0,0,1,.867-.027,3.336,3.336,0,0,1,.777.2,3.423,3.423,0,0,1,.715.387,3.351,3.351,0,0,1,.613.535,3.2,3.2,0,0,1,.449.664,3.046,3.046,0,0,1,.289.852,2.947,2.947,0,0,1,.031.891,3.218,3.218,0,0,1-.207.828,2.973,2.973,0,0,1-.422.746,3.042,3.042,0,0,1-.578.586,3.185,3.185,0,0,1-1.5.656,3.2,3.2,0,0,1-.82.02,2.859,2.859,0,0,1-.809-.2,3.118,3.118,0,0,1-.73-.414,3.058,3.058,0,0,1-.527-.5,3.586,3.586,0,0,1-.4-.594,3.226,3.226,0,0,1-.289-.852,3.178,3.178,0,0,1-.043-.9,3.239,3.239,0,0,1,.207-.879A3.4,3.4,0,0,1,56803.055,52450.91Zm10.184,0a3.335,3.335,0,0,1,.5-.523,3.214,3.214,0,0,1,.613-.406,2.99,2.99,0,0,1,1.684-.3,3.257,3.257,0,0,1,.773.2,3.385,3.385,0,0,1,.723.387,3.3,3.3,0,0,1,.605.535,3.219,3.219,0,0,1,.453.664,3.035,3.035,0,0,1,.324,1.742,3.386,3.386,0,0,1-.207.828,3.319,3.319,0,0,1-.422.746,3.285,3.285,0,0,1-.578.586,3.39,3.39,0,0,1-.715.426,3.226,3.226,0,0,1-.8.23,3.171,3.171,0,0,1-.816.02,3.113,3.113,0,0,1-1.539-.617,3.18,3.18,0,0,1-.523-.5,3.359,3.359,0,0,1-.4-.594,3.247,3.247,0,0,1-.3-.852,3.177,3.177,0,0,1-.039-.9,3.239,3.239,0,0,1,.207-.879A3.161,3.161,0,0,1,56813.238,52450.91Zm10.172,0a3.221,3.221,0,0,1,.5-.527,3.276,3.276,0,0,1,.621-.406,2.869,2.869,0,0,1,1.68-.3,3.7,3.7,0,0,1,.777.191,3.571,3.571,0,0,1,.719.391,3.331,3.331,0,0,1,1.059,1.2,3.251,3.251,0,0,1,.289.855,2.9,2.9,0,0,1,.027.883,3.2,3.2,0,0,1-.2.832,2.934,2.934,0,0,1-.426.746,3.263,3.263,0,0,1-.574.586,3.543,3.543,0,0,1-.707.426,3.357,3.357,0,0,1-.8.23,3.176,3.176,0,0,1-.816.02,2.852,2.852,0,0,1-.812-.2,2.964,2.964,0,0,1-.727-.414,3.058,3.058,0,0,1-.527-.5,3.158,3.158,0,0,1-.4-.594,3.092,3.092,0,0,1-.289-.852,3.329,3.329,0,0,1-.047-.9,3.39,3.39,0,0,1,.207-.879A3.177,3.177,0,0,1,56823.41,52450.914Zm10.18,0a3.36,3.36,0,0,1,.5-.523,3.214,3.214,0,0,1,.613-.406,2.757,2.757,0,0,1,.816-.273,2.8,2.8,0,0,1,.863-.027,3.319,3.319,0,0,1,.781.2,3.423,3.423,0,0,1,.715.387,3.2,3.2,0,0,1,.609.535,3.056,3.056,0,0,1,.449.664,3.035,3.035,0,0,1,.324,1.742,3.067,3.067,0,0,1-.207.828,3.224,3.224,0,0,1-.418.746,3.57,3.57,0,0,1-.578.586,3.39,3.39,0,0,1-.715.426,3.3,3.3,0,0,1-.793.23,3.206,3.206,0,0,1-.82.02,2.827,2.827,0,0,1-.809-.2,3.31,3.31,0,0,1-1.258-.914,3.334,3.334,0,0,1-.395-.594,3.247,3.247,0,0,1-.3-.852,3.328,3.328,0,0,1-.043-.9,3.4,3.4,0,0,1,.211-.879A3.273,3.273,0,0,1,56833.59,52450.91Zm-50.887,10.176a3.065,3.065,0,0,1,.508-.523,3.467,3.467,0,0,1,.613-.4,2.843,2.843,0,0,1,.816-.277,3.057,3.057,0,0,1,.863-.027,3.116,3.116,0,0,1,.777.2,3.163,3.163,0,0,1,.719.379,3.522,3.522,0,0,1,.609.543,3.327,3.327,0,0,1,.453.664,3.292,3.292,0,0,1,.289.848,3.08,3.08,0,0,1,.027.891,2.864,2.864,0,0,1-.207.828,3.03,3.03,0,0,1-.418.746,3.419,3.419,0,0,1-.578.586,3.148,3.148,0,0,1-.711.426,3.327,3.327,0,0,1-.8.23,3.035,3.035,0,0,1-.82.02,3.066,3.066,0,0,1-1.535-.613,3.379,3.379,0,0,1-.527-.5,3.591,3.591,0,0,1-.4-.6,3.224,3.224,0,0,1-.125-2.625A3.3,3.3,0,0,1,56782.7,52461.086Zm10.18,0a3.042,3.042,0,0,1,.5-.523,3.364,3.364,0,0,1,.617-.4,2.9,2.9,0,0,1,.813-.277,3.08,3.08,0,0,1,.867-.027,3.175,3.175,0,0,1,.773.2,3.247,3.247,0,0,1,.719.379,3.358,3.358,0,0,1,.605.543,3.171,3.171,0,0,1,.453.664,3.029,3.029,0,0,1,.293.848,2.947,2.947,0,0,1,.031.891,3.3,3.3,0,0,1-.207.828,2.857,2.857,0,0,1-.422.746,3.286,3.286,0,0,1-.578.586,3.065,3.065,0,0,1-.711.426,3.327,3.327,0,0,1-.8.23,3.01,3.01,0,0,1-.816.02,2.919,2.919,0,0,1-.809-.2,3.1,3.1,0,0,1-.73-.414,3.8,3.8,0,0,1-.527-.5,3.254,3.254,0,0,1-.395-.6,3.087,3.087,0,0,1-.3-.848,3.171,3.171,0,0,1-.043-.9,3.113,3.113,0,0,1,.211-.875A3.05,3.05,0,0,1,56792.883,52461.086Zm10.172,0a3.089,3.089,0,0,1,.512-.523,3.33,3.33,0,0,1,.613-.4,2.86,2.86,0,0,1,.813-.277,3.093,3.093,0,0,1,.867-.027,3.16,3.16,0,0,1,.777.2,3.22,3.22,0,0,1,.715.379,3.548,3.548,0,0,1,.613.543,3.309,3.309,0,0,1,.449.664,3.021,3.021,0,0,1,.289.848,2.947,2.947,0,0,1,.031.891,3.14,3.14,0,0,1-.207.828,3.03,3.03,0,0,1-.418.746,3.305,3.305,0,0,1-.582.586,3.124,3.124,0,0,1-.707.426,3.327,3.327,0,0,1-.8.23,3.035,3.035,0,0,1-.82.02,2.927,2.927,0,0,1-.8-.2,3.065,3.065,0,0,1-.734-.414,3.174,3.174,0,0,1-1.215-1.949,3.32,3.32,0,0,1-.043-.9,3.212,3.212,0,0,1,.207-.875A3.281,3.281,0,0,1,56803.055,52461.086Zm10.184,0a2.754,2.754,0,0,1,.5-.523,3.5,3.5,0,0,1,.617-.4,2.884,2.884,0,0,1,.816-.277,3.057,3.057,0,0,1,.863-.027,3.16,3.16,0,0,1,.777.2,3.247,3.247,0,0,1,.719.379,3.425,3.425,0,0,1,1.063,1.207,3.021,3.021,0,0,1,.289.848,3.079,3.079,0,0,1,.031.891,3.3,3.3,0,0,1-.207.828,3.236,3.236,0,0,1-.422.746,3.286,3.286,0,0,1-.578.586,3.089,3.089,0,0,1-.715.426,3.246,3.246,0,0,1-.793.23,3.039,3.039,0,0,1-.82.02,3.029,3.029,0,0,1-1.535-.613,3.2,3.2,0,0,1-.926-1.1,3.221,3.221,0,0,1-.3-.848,3.171,3.171,0,0,1-.039-.9,3.179,3.179,0,0,1,.656-1.664Zm9.648,3.238a18.587,18.587,0,0,1,2.656-1.086,17.41,17.41,0,0,1,2.7-.645l.3-.039a18.455,18.455,0,0,1,6.777.371,18.986,18.986,0,0,1,6.2,2.773,10.86,10.86,0,0,1,1.137.879,2.991,2.991,0,0,1,.66.809,1.454,1.454,0,0,1,.129,1,2.248,2.248,0,0,1-.508.914,1.924,1.924,0,0,1-.719.555,1.468,1.468,0,0,1-.918.063,3.584,3.584,0,0,1-.914-.367c-.324-.18-.707-.422-1.172-.734-.2-.137-.414-.277-.648-.414s-.492-.3-.75-.437-.508-.266-.73-.375-.418-.191-.594-.258a15.671,15.671,0,0,0-2.93-.828,14.8,14.8,0,0,0-2.953-.227,14.554,14.554,0,0,0-2.91.371,15.149,15.149,0,0,0-2.82.969,13,13,0,0,0-2.262,1.336,16.721,16.721,0,0,0-2.137,1.883,16.1,16.1,0,0,0-1.766,2.2,12.365,12.365,0,0,0-1.187,2.266c-.223.582-.395,1.066-.535,1.5a8.644,8.644,0,0,0-.3,1.176,8.977,8.977,0,0,0-.137,1.223c-.027.453-.031.988-.031,1.656s0,1.2.031,1.652a9.049,9.049,0,0,0,.137,1.223,8.021,8.021,0,0,0,.3,1.176c.137.43.309.91.531,1.492a12.188,12.188,0,0,0,1.289,2.418,16.169,16.169,0,0,0,4.254,4.246,12.552,12.552,0,0,0,2.434,1.3c.582.223,1.059.395,1.484.527a8.8,8.8,0,0,0,1.164.3,9.328,9.328,0,0,0,1.223.129c.453.031.988.039,1.648.039s1.2-.008,1.652-.039a8.427,8.427,0,0,0,1.223-.133,8.1,8.1,0,0,0,1.176-.3c.43-.137.91-.312,1.5-.535a12.152,12.152,0,0,0,2.266-1.191,15.787,15.787,0,0,0,2.207-1.766,16.4,16.4,0,0,0,1.879-2.133,12.757,12.757,0,0,0,1.336-2.262,14.225,14.225,0,0,0,.746-2.055,16.319,16.319,0,0,0,.465-2.242,15.706,15.706,0,0,0,.145-2.246,12.133,12.133,0,0,0-.18-2.062,6.742,6.742,0,0,1-.129-1.273,2.257,2.257,0,0,1,.2-.973,1.433,1.433,0,0,1,.691-.7,2.355,2.355,0,0,1,1.035-.2,1.6,1.6,0,0,1,1.02.332,2.272,2.272,0,0,1,.672.98,6.489,6.489,0,0,1,.332,1.34c.082.539.148,1.172.188,1.922a17.018,17.018,0,0,1-.176,3.8,18.263,18.263,0,0,1-1,3.758,18.647,18.647,0,0,1-1.77,3.488,18.046,18.046,0,0,1-2.434,3.016,18.437,18.437,0,0,1-26.074-26.074,17.8,17.8,0,0,1,2.289-1.922A19.214,19.214,0,0,1,56822.887,52464.324Zm-40.184,6.941a3.215,3.215,0,0,1,.508-.523,3.082,3.082,0,0,1,.613-.4,2.691,2.691,0,0,1,.82-.281,2.891,2.891,0,0,1,.859-.023,3.145,3.145,0,0,1,.777.191,3.356,3.356,0,0,1,.719.387,3.789,3.789,0,0,1,.609.539,3.268,3.268,0,0,1,.453.664,3.343,3.343,0,0,1,.289.848,3.08,3.08,0,0,1,.027.891,2.8,2.8,0,0,1-.207.832,3.078,3.078,0,0,1-.418.742,3.182,3.182,0,0,1-.578.59,3.464,3.464,0,0,1-.711.426,3.507,3.507,0,0,1-.8.227,3.035,3.035,0,0,1-.82.023,3.119,3.119,0,0,1-1.535-.617,3.379,3.379,0,0,1-.527-.5,3.56,3.56,0,0,1-.4-.6,3.229,3.229,0,0,1-.332-1.75,3.353,3.353,0,0,1,.207-.879A3.2,3.2,0,0,1,56782.7,52471.266Zm10.176,0a3.19,3.19,0,0,1,.5-.523,3.443,3.443,0,0,1,.617-.406,2.845,2.845,0,0,1,.816-.277,2.94,2.94,0,0,1,.867-.023,3.158,3.158,0,0,1,.773.191,3.452,3.452,0,0,1,.719.387,3.338,3.338,0,0,1,.605.539,2.98,2.98,0,0,1,.453.664,3.014,3.014,0,0,1,.324,1.738,3.373,3.373,0,0,1-.207.832,2.989,2.989,0,0,1-.422.746,3.421,3.421,0,0,1-.578.586,3.207,3.207,0,0,1-.711.426,3.451,3.451,0,0,1-.8.227,3.011,3.011,0,0,1-.816.023,2.926,2.926,0,0,1-.809-.2,2.969,2.969,0,0,1-.73-.414,3.561,3.561,0,0,1-.527-.5,3.361,3.361,0,0,1-.395-.6,3.024,3.024,0,0,1-.3-.852,3.158,3.158,0,0,1-.043-.9,3.075,3.075,0,0,1,.211-.879A3.131,3.131,0,0,1,56792.879,52471.266Zm10.176,0a3.24,3.24,0,0,1,.512-.523,2.973,2.973,0,0,1,.613-.4,2.7,2.7,0,0,1,.816-.281,2.92,2.92,0,0,1,.863-.023,3.145,3.145,0,0,1,.777.191,3.423,3.423,0,0,1,.715.387,3.482,3.482,0,0,1,.609.539,2.98,2.98,0,0,1,.453.664,3.064,3.064,0,0,1,.289.848,2.947,2.947,0,0,1,.031.891,3.208,3.208,0,0,1-.207.832,3.17,3.17,0,0,1-1,1.332,3.436,3.436,0,0,1-.707.426,3.507,3.507,0,0,1-.8.227,3.035,3.035,0,0,1-.82.023,2.935,2.935,0,0,1-.8-.2,3.065,3.065,0,0,1-.734-.414,3.351,3.351,0,0,1-.523-.5,3.062,3.062,0,0,1-.691-1.449,3.3,3.3,0,0,1-.043-.9,3.205,3.205,0,0,1,.207-.879A3.316,3.316,0,0,1,56803.055,52471.266Zm35.438,4.441,2.055-2.219,1.652-1.758c.449-.48.836-.883,1.125-1.176a6.108,6.108,0,0,1,.539-.512l.035-.02c.094-.059.172-.1.242-.137a1.311,1.311,0,0,1,.246-.1,2.057,2.057,0,0,1,.266-.074,2.145,2.145,0,0,1,.281-.027c.094,0,.184,0,.266.012s.184.031.27.051a1.817,1.817,0,0,1,.242.086c.1.043.207.082.309.133a2.129,2.129,0,0,1,.352.219,2.364,2.364,0,0,1,.3.289,1.782,1.782,0,0,1,.242.34,2.061,2.061,0,0,1,.18.375,1.887,1.887,0,0,1,.1.414,2.129,2.129,0,0,1,.027.418,2.246,2.246,0,0,1-.062.422,2.4,2.4,0,0,1-.137.4l-.02.043a9.784,9.784,0,0,1-.652.828c-.375.441-.9,1.043-1.531,1.754-.594.664-1.375,1.535-2.285,2.535-.883.98-1.863,2.055-2.855,3.133-.965,1.063-1.937,2.117-2.84,3.094s-1.715,1.844-2.316,2.484c-.641.676-1.184,1.246-1.594,1.66a6.7,6.7,0,0,1-.77.719,3.33,3.33,0,0,1-.543.289,1.665,1.665,0,0,1-.629.109,1.693,1.693,0,0,1-.668-.172,3.227,3.227,0,0,1-.691-.469,6.827,6.827,0,0,1-.594-.566c-.219-.223-.469-.5-.758-.82-.266-.312-.586-.684-.945-1.117l-1.844-2.2-1.242-1.523-.52-.648-.469-.609-.363-.5c-.113-.156-.2-.3-.277-.422a1.353,1.353,0,0,1-.148-.34,2.492,2.492,0,0,1-.059-.375,3.046,3.046,0,0,1,.012-.379,2.887,2.887,0,0,1,.074-.383,2.124,2.124,0,0,1,.141-.363,2.354,2.354,0,0,1,.2-.348,2.128,2.128,0,0,1,.258-.3,2.024,2.024,0,0,1,.668-.434l.012,0a3.1,3.1,0,0,1,.52-.152,1.806,1.806,0,0,1,.563-.02,2.013,2.013,0,0,1,.586.191,3.193,3.193,0,0,1,.6.414,6.383,6.383,0,0,1,.523.5c.2.2.406.43.637.691.2.227.461.535.781.914l1.7,2.031.672.781.777.879,1.238-1.367,3.906-4.27Zm-63.906,3.133a2.076,2.076,0,0,1,.352-.559,1.57,1.57,0,0,1,.488-.383,10.882,10.882,0,0,1,2.262-.187l9.848-.016c2.336.066,3.313.082,3.395,3.109l.047,9.555h10.219c1.727,0,3.359,0,4.945.008,1.4.008,2.559.02,3.5.035s1.645.035,2.133.059a3.758,3.758,0,0,1,.961.129l.027.012a1.709,1.709,0,0,1,.5.355,1.686,1.686,0,0,1,.355.5,1.885,1.885,0,0,1,.141.41,2.411,2.411,0,0,1,.047.434,2,2,0,0,1-.187.848,1.832,1.832,0,0,1-.355.508,1.773,1.773,0,0,1-.5.352l-.016.008a4.035,4.035,0,0,1-1.023.125c-.516.031-1.27.051-2.285.066s-2.266.023-3.785.031c-1.723.008-3.5.012-5.375.012h-12.062l-6.844-6.828c-.93-.93-1.793-1.8-2.578-2.6-.832-.848-1.566-1.605-2.18-2.246-.758-.789-2.3-1.965-2.184-3.109a2.327,2.327,0,0,1,.16-.629Zm18.293,2.605a3.584,3.584,0,0,1,.5-.531,3.689,3.689,0,0,1,.621-.4,2.9,2.9,0,0,1,.813-.277,3.055,3.055,0,0,1,.863-.023,3.152,3.152,0,0,1,.777.2,3.435,3.435,0,0,1,.719.383,3.351,3.351,0,0,1,1.059,1.207,3.072,3.072,0,0,1,.293.848,2.948,2.948,0,0,1,.027.891,3.283,3.283,0,0,1-.2.832,3.168,3.168,0,0,1-.422.742,3.286,3.286,0,0,1-.578.586,3.049,3.049,0,0,1-.711.422,3.151,3.151,0,0,1-1.613.254,3.057,3.057,0,0,1-.809-.2,3.42,3.42,0,0,1-.73-.418,3.8,3.8,0,0,1-.527-.5,3.508,3.508,0,0,1-.395-.6,3.146,3.146,0,0,1-.34-1.754,3.05,3.05,0,0,1,.211-.875A3,3,0,0,1,56792.879,52481.445Zm10.176,0a3.431,3.431,0,0,1,.512-.527,3.616,3.616,0,0,1,.613-.4,2.953,2.953,0,0,1,1.68-.3,3.152,3.152,0,0,1,.777.2,3.6,3.6,0,0,1,.715.383,3.548,3.548,0,0,1,.613.543,3.1,3.1,0,0,1,.449.664,2.979,2.979,0,0,1,.289.848,2.947,2.947,0,0,1,.031.891,3.248,3.248,0,0,1-.207.832,3.091,3.091,0,0,1-.422.742,2.935,2.935,0,0,1-.578.586,3.34,3.34,0,0,1-1.5.656,3.2,3.2,0,0,1-.82.02,3.132,3.132,0,0,1-.809-.2,3.621,3.621,0,0,1-.73-.418,3.232,3.232,0,0,1-.926-1.1,3.275,3.275,0,0,1-.289-.852,3.178,3.178,0,0,1-.043-.9,3.212,3.212,0,0,1,.207-.875A3.341,3.341,0,0,1,56803.055,52481.441Z" transform="translate(-55868.66 -51247.344)" fill="#fff" fill-rule="evenodd"/></g></svg>