<svg xmlns="http://www.w3.org/2000/svg" width="148.165" height="148.165" viewBox="0 0 148.165 148.165"><g transform="translate(-664 -1339.785)"><circle cx="74.083" cy="74.083" r="74.083" transform="translate(664 1339.785)" fill="#ff610f"/><path d="M6396.375,96366.109c4.082.156,8.4.1,12.645.055,2.377-.039,4.732-.062,6.209-.062h18.922c.651,0,1.264-.023,1.831-.055a14.676,14.676,0,0,0,7.72-2.344,7.4,7.4,0,0,0,2.943-6.352q0-.469-.025-.844a9.81,9.81,0,0,0-.434-2.281,8.419,8.419,0,0,0-.893-1.984,9.629,9.629,0,0,0-1.274-1.586,9.122,9.122,0,0,0-1.6-1.266h-.007a7.364,7.364,0,0,0-1.9-.867,10.974,10.974,0,0,0-2.385-.414l-.994-.078-.457-.891a10.273,10.273,0,0,1-.488-1.117,4.1,4.1,0,0,0-.365-.8,8.21,8.21,0,0,0-3.276-3.164h-.007a7.759,7.759,0,0,0-4.394-.633,6.508,6.508,0,0,0-1.3.336,8.394,8.394,0,0,1-1.272.367l-.932.2-.68-.68a24.637,24.637,0,0,0-5.4-4.344,13.331,13.331,0,0,0-6.524-1.531,15.14,15.14,0,0,0-6.67,1.492,13.726,13.726,0,0,0-5.054,4.188l-.021.031a13.427,13.427,0,0,0-2.114,3.578,34.22,34.22,0,0,0-1.209,4.8l-.263,1.258-1.265.156a6.953,6.953,0,0,0-1.027.2,7.64,7.64,0,0,0-4.128,3.008,7.1,7.1,0,0,0-1.243,4.859,6.891,6.891,0,0,0,.193.961,8.131,8.131,0,0,0,2.642,4.18A7.51,7.51,0,0,0,6396.375,96366.109Zm-15.233,26.727a10.139,10.139,0,0,1,7.179,2.977l.006.008a10.165,10.165,0,0,1,2.035,11.461l7.78,6.453a10.162,10.162,0,0,1,12.615-.891l5.072-6.445c-.064-.062-.128-.117-.192-.187h-.006a10.158,10.158,0,1,1,14.365-14.367l.006.008a10.15,10.15,0,0,1,2.777,9.188l11.233,5.367q.151-.164.309-.328a10.154,10.154,0,0,1,14.365,0l.006.008a10.158,10.158,0,1,1-14.365,14.367l-.006-.008a10.151,10.151,0,0,1-2.233-11l-10.628-5.07a10.362,10.362,0,0,1-1.458,1.836,10.158,10.158,0,0,1-11.183,2.156l-5.505,6.992a10.161,10.161,0,0,1-15.478,13.055l-.006-.008a10.169,10.169,0,0,1-1.854-11.836l-7.669-6.359a10.138,10.138,0,0,1-14.344-.023l-.007-.008a10.16,10.16,0,0,1,7.187-17.344Zm75.029,15.766a6.6,6.6,0,0,0-9.332,9.328l.007.008a6.6,6.6,0,0,0,9.325-9.336Zm-28.69-14.242a6.595,6.595,0,0,0-9.332,9.32l.007.016a6.6,6.6,0,0,0,9.325-9.336Zm-17.8,22.2a6.595,6.595,0,0,0-9.332,9.32l.007.008a6.595,6.595,0,0,0,9.325-9.328Zm-23.874-18.219a6.595,6.595,0,0,0-9.332,9.32l.007.016a6.6,6.6,0,0,0,9.325-9.336Zm33.916-25.445v4.336h37.552v22.039H6453.7V96380.8H6382.17v9.25H6378.6v-12.82h37.552v-7.562h-.92c-2.569,0-4.364.023-6.167.047-4.317.055-8.7.1-12.826-.062a11.056,11.056,0,0,1-6.591-2.391,11.687,11.687,0,0,1-3.842-6,10.226,10.226,0,0,1-.3-1.492,10.616,10.616,0,0,1,1.856-7.3,11.106,11.106,0,0,1,6.1-4.422l.275-.07a28.949,28.949,0,0,1,1.118-4.172,16.9,16.9,0,0,1,2.611-4.484,17.36,17.36,0,0,1,6.363-5.266,18.438,18.438,0,0,1,8.246-1.836,16.944,16.944,0,0,1,8.185,1.938,25.107,25.107,0,0,1,5.468,4.234,8.546,8.546,0,0,1,2.027-.5,11.212,11.212,0,0,1,6.375.977,11.766,11.766,0,0,1,4.734,4.469,6.933,6.933,0,0,1,.636,1.336,13.516,13.516,0,0,1,2.043.438,11.065,11.065,0,0,1,2.781,1.266h0a12.854,12.854,0,0,1,2.22,1.766,12.365,12.365,0,0,1,1.776,2.2,12.16,12.16,0,0,1,1.282,2.82,13.576,13.576,0,0,1,.588,3.125c.027.4.04.758.04,1.07a10.815,10.815,0,0,1-4.408,9.234,18.258,18.258,0,0,1-9.6,3.023c-.713.039-1.4.063-2.055.063h-14.43Z" transform="translate(-5679.854 -94968.375)" fill="#fff"/></g></svg>