<svg xmlns="http://www.w3.org/2000/svg" width="148.165" height="148.165" viewBox="0 0 148.165 148.165"><g transform="translate(-664 -1715.806)"><circle cx="74.083" cy="74.083" r="74.083" transform="translate(664 1715.806)" fill="#ff610f"/><path d="M10018.921,186359.047h5.746a2.133,2.133,0,0,1,2.133,2.125h0a2.147,2.147,0,0,1-2.133,2.141h-5.746a2.147,2.147,0,0,1-2.133-2.141h0A2.133,2.133,0,0,1,10018.921,186359.047Zm42.961-26.937h-9.833a6.677,6.677,0,0,1-4.809-2.094l-.085-.094a7.232,7.232,0,0,1-1.914-4.906v-10.109H10014.2c-2.623-.094-4.556.344-5.77,1.453-1.2,1.094-1.811,2.969-1.811,5.734v66.578a1.488,1.488,0,1,1-2.977,0v-66.578c0-3.656.937-6.234,2.787-7.922,1.827-1.672,4.438-2.359,7.822-2.234h32.48a1.478,1.478,0,0,1,1.145.531l16.566,17.172a1.467,1.467,0,0,1,.414,1.031h0v58a1.5,1.5,0,0,1-1.489,1.5,1.458,1.458,0,0,1-1.056-.453l-5.639-5.641-5.854,5.859a1.494,1.494,0,0,1-2.1,0l-5.965-5.953-5.965,5.953a1.492,1.492,0,0,1-2.1,0l-5.778-5.781-5.858,5.875a1.523,1.523,0,0,1-2.1,0l-7.55-7.562a1.49,1.49,0,0,1,2.1-2.109l6.5,6.5,5.858-5.859a1.494,1.494,0,0,1,2.1,0l5.778,5.781,5.965-5.969a1.494,1.494,0,0,1,2.1,0l5.964,5.969,5.855-5.844a1.466,1.466,0,0,1,2.1,0l4.154,4.141Zm-13.776-15.109v8.016a4.172,4.172,0,0,0,1.092,2.828l.067.063a3.834,3.834,0,0,0,2.784,1.2h7.758Zm-28.586,5.219c-1.4.813-4.712,1.422-5.425,5.141-1.358,7.094,7.4,7.172,8.031,7.375,3.716,1.188,2.137,5.172-1.624,5.078-2.242-.047-1.848-1.312-4.333-1.125-2.676,3.266.622,3.328,2.576,4.594-.069,1.594-.462,3.484,1.5,3.531,2.062.094,1.905-1.8,1.956-3.625,2.669-1.141,6.412-2.922,5.411-7.437-1.09-4.906-6.472-4.516-7.947-4.953-4.538-1.266-1.113-6.562,3.017-4.844.913.375,1.188,1.016,2.277.891a1.617,1.617,0,0,0,1.545-1.734c.022-1.734-2.12-2.234-3.535-2.812.074-1.562.425-3.547-1.459-3.672C10019.53,186318.531,10019.57,186320.516,10019.52,186322.219Zm21.687,47.281h8.88a2.129,2.129,0,0,1,2.132,2.109h0a2.149,2.149,0,0,1-2.132,2.156h-8.88a2.15,2.15,0,0,1-2.133-2.156h0A2.13,2.13,0,0,1,10041.206,186369.5Zm-8.356-10.453h17.236a2.132,2.132,0,0,1,2.132,2.125h0a2.145,2.145,0,0,1-2.132,2.141h-17.236a2.148,2.148,0,0,1-2.134-2.141h0A2.134,2.134,0,0,1,10032.85,186359.047Zm0-8.187h17.236a2.135,2.135,0,0,1,2.132,2.141h0a2.132,2.132,0,0,1-2.132,2.125h-17.236a2.134,2.134,0,0,1-2.134-2.125h0A2.137,2.137,0,0,1,10032.85,186350.859Zm0-8.187h17.236a2.145,2.145,0,0,1,2.132,2.141h0a2.132,2.132,0,0,1-2.132,2.125h-17.236a2.134,2.134,0,0,1-2.134-2.125h0A2.148,2.148,0,0,1,10032.85,186342.672Zm-13.929,8.188h5.746a2.137,2.137,0,0,1,2.133,2.141h0a2.134,2.134,0,0,1-2.133,2.125h-5.746a2.133,2.133,0,0,1-2.133-2.125h0A2.136,2.136,0,0,1,10018.921,186350.859Z" transform="translate(-9297.047 -184564.984)" fill="#fff" fill-rule="evenodd"/></g></svg>