<svg xmlns="http://www.w3.org/2000/svg" width="148.165" height="148.165" viewBox="0 0 148.165 148.165"><g transform="translate(-869.182 -1530.422)"><circle cx="74.083" cy="74.083" r="74.083" transform="translate(869.182 1530.422)" fill="#ff610f"/><path d="M51136.8,139547.25a5.792,5.792,0,0,1-2.539,3.578,5.877,5.877,0,0,1-4.309.672h-.059a5.67,5.67,0,0,1-3.516-2.391,5.9,5.9,0,0,1-.836-4.516c0-.016.012-.047.012-.062a5.35,5.35,0,0,1,4.531-4.328,5.972,5.972,0,0,1,2.41.078,6.083,6.083,0,0,1,2.234.969A5.42,5.42,0,0,1,51136.8,139547.25Zm37.277,70.953c-2.543,7.25-12.848,3.672-10.723-3.234a5.578,5.578,0,0,1,6.863-3.75C51172.6,139611.875,51175.277,139614.828,51174.082,139618.2Zm-52.6-3.156a1.6,1.6,0,0,0-.9,2.344,1.835,1.835,0,0,0,2.344.844C51124.852,139617.547,51123.7,139614,51121.484,139615.047Zm46.551-.016a1.742,1.742,0,1,0,1.434,3.172C51171.477,139617.406,51170.223,139613.922,51168.035,139615.031Zm-88.344-27.156c.605,1.594,3.844,1.109,5.719,1.109h13.371c1.949,0,4.891,0,3.789-2.687-.6-1.484-3.906-.953-5.7-.953H51083.5C51081.59,139585.344,51078.672,139585.172,51079.691,139587.875Zm5.484,19.594h13.367c1.77,0,4.84.344,4.105-2.359-.508-1.875-3.687-1.281-5.535-1.281-2.07,0-15.6-.266-16.566.188a1.878,1.878,0,0,0-.895,2.25C51080.184,139607.938,51083.422,139607.469,51085.176,139607.469Zm-15.555-10.531c.41,1.469,2.168,1.281,3.613,1.281h22.684c2.254,0,7.625.906,6.73-2.437-.418-1.547-2.16-1.2-3.629-1.187h-22.68C51074.086,139594.594,51068.68,139593.609,51069.621,139596.938Zm57.949,21.266c-2.621,7.344-12.781,3.516-10.742-3.219a5.6,5.6,0,0,1,6.852-3.75C51126.043,139611.844,51128.758,139614.875,51127.57,139618.2Zm-17.324-5.625c-2.707,0-1.883-1.609-1.883-4.172v-17.422c0-14.344-1.473-12.094,5.223-12.141h37.008c2.613,0,2.691-.281,2.676,1.844l-.016,30.344c0,1.828-.711,1.547-2.422,1.547h-20.055c-.3-.094-5.4-8.875-13.762-3.609-1.809,1.141-2.359,2.5-3.191,3.578Zm69.773-10.594c-2.477-.047-4.977-.016-7.457-.016s-4.523.344-5.582-1.578c-1.031-1.875-.211-4.609,1.3-5.312,1.258-.594,5.344-.391,6.934-.312a30.7,30.7,0,0,0,2.359,3.609C51178.453,139599.734,51179.2,139600.656,51180.02,139601.984Zm-23.031-13.375,14.141.047a4.707,4.707,0,0,1,1.625,2.469,18.691,18.691,0,0,0-5.047.25c-5.211,1.516-6.727,9.625-1.738,13.125,2.5,1.766,10.918,1.2,14.457,1.078l.023,7-3.352-.047c-1.262-1.375-2.754-5.094-8.359-5.125-4.309-.031-6.312,2.141-8.352,5.156l-3.418.031Zm-.16-3.609c0-3.875,1.18-9.344-4.32-9.766-4.113-.312-9.59-.016-13.852-.016-9.23,0-18.469.031-27.7,0-6.793-.031-6.207,3.234-6.207,7.641v27.7c-.031,5.75,3.043,5.656,8.254,5.594,0,12.734,18.16,13.016,18.4,0,2.3.016,20.559.219,22-.156,3.016-.844-.168.2,6.145.156-.359,12.3,18.234,13.484,18.363,0,3,.047,4.9.141,5.84-2.266.555-1.437.316-6.016.316-7.859,0-6.453.02-4.344-4.648-11.406-1.488-2.234-5.445-7.531-7.215-9.016-1.469-1.25-5.363-.609-7.523-.609C51162.07,139585,51159.434,139585.031,51156.828,139585Zm-24.109-36.7a2.771,2.771,0,0,0,1.207-1.734,2.6,2.6,0,0,0-.91-2.891,3.048,3.048,0,0,0-1.152-.5,3.621,3.621,0,0,0-1.3-.047,2.486,2.486,0,0,0-2.1,2.016l-.016.031a3.029,3.029,0,0,0,.395,2.3,2.672,2.672,0,0,0,1.668,1.125h.035a2.875,2.875,0,0,0,2.16-.3Zm-.891,17.578.707-.906c3.426-4.469,6.68-8.719,8.434-14.3,1.281-4.078.551-7.437-1.242-9.828a10.272,10.272,0,0,0-3.91-3.156,11.365,11.365,0,0,0-4.957-1.078,9.479,9.479,0,0,0-7.922,4.281,10.7,10.7,0,0,0-1.883,6.047,15.785,15.785,0,0,0,1.461,6.219,44,44,0,0,0,3.313,5.984,73.826,73.826,0,0,0,4.844,6.688c.324.375.438.516.547.656a8.686,8.686,0,0,0,.586.7C51132.391,139567.625,51131.336,139566.531,51131.828,139565.875Zm3.063.891-.7.922c-1.887,2.469-2.512,3.141-4.18,1.859a6.58,6.58,0,0,1-1.117-1.2l-.508-.641a78.075,78.075,0,0,1-5.055-6.953,45.879,45.879,0,0,1-3.531-6.422,18.685,18.685,0,0,1-1.707-7.391,13.558,13.558,0,0,1,2.375-7.687,12.494,12.494,0,0,1,10.352-5.609,14.017,14.017,0,0,1,6.266,1.359,13.441,13.441,0,0,1,5.031,4.047c2.324,3.125,3.293,7.406,1.7,12.516C51141.895,139557.641,51138.484,139562.094,51134.891,139566.766Z" transform="translate(-50188.078 -137985.875)" fill="#fff"/></g></svg>