<svg xmlns="http://www.w3.org/2000/svg" width="148.165" height="148.165" viewBox="0 0 148.165 148.165"><g transform="translate(-664 -953.686)"><circle cx="74.083" cy="74.083" r="74.083" transform="translate(664 953.686)" fill="#ff610f"/><path d="M9083.374,6280.388h18.871v-5.366h-25.486a7.346,7.346,0,0,1-7.327-7.329v-42.546a7.346,7.346,0,0,1,7.327-7.328h6.426v0h2.033a1.8,1.8,0,0,1,1.8,1.8h0a1.8,1.8,0,0,1-1.8,1.8h-2.033v-.021h-6.426a3.77,3.77,0,0,0-3.755,3.755v42.546a3.77,3.77,0,0,0,3.755,3.756h62.032a3.77,3.77,0,0,0,3.755-3.756v-42.546a3.77,3.77,0,0,0-3.755-3.755h-3.939v.021h-2.033a1.785,1.785,0,0,1-.275-.021h-.02v0a1.8,1.8,0,0,1-1.5-1.773h0a1.8,1.8,0,0,1,1.5-1.773v-.022h.188l.106,0h2.033v0h3.939a7.346,7.346,0,0,1,7.327,7.328v42.546a7.346,7.346,0,0,1-7.327,7.328h-23.317v5.366H9132v3.572h-48.623Zm5.15-66.416h-11.316a1.487,1.487,0,0,1-1.487-1.488v-3.159a7.817,7.817,0,0,1,2.2-5.439,7.4,7.4,0,0,1,5.324-2.285h.789a1.536,1.536,0,0,1,.426-.06h36.393a7.93,7.93,0,0,1,5.619,2.336l.09.1a7.931,7.931,0,0,1,2.246,5.523v26.62a1.531,1.531,0,0,1-3.062,0V6209.5a4.875,4.875,0,0,0-1.365-3.386l-.073-.069a4.879,4.879,0,0,0-3.455-1.438h-30.932a7.812,7.812,0,0,1,1.584,4.723v9.05a1.488,1.488,0,1,1-2.977,0Zm40.481,44.308h.688a1.382,1.382,0,0,1,1.177,1.514h0a1.382,1.382,0,0,1-1.177,1.514h-.688a1.382,1.382,0,0,1-1.176-1.514h0A1.382,1.382,0,0,1,9129.006,6258.28Zm3.716-9.456h-15.788v13.046a.856.856,0,0,0,.251.611l0,.006a.864.864,0,0,0,.611.25h14.054a.862.862,0,0,0,.611-.25l0-.006a.86.86,0,0,0,.251-.611Zm-15.788-2.815h15.788v-2.741a.859.859,0,0,0-.252-.612l0-.005a.862.862,0,0,0-.611-.25H9117.8a.862.862,0,0,0-.611.25l0,.005a.858.858,0,0,0-.251.612Zm.867-6.424h14.054a3.673,3.673,0,0,1,2.6,1.081l.006,0a3.675,3.675,0,0,1,1.081,2.6v18.6a3.672,3.672,0,0,1-1.081,2.6l-.006.005a3.669,3.669,0,0,1-2.6,1.081H9117.8a3.674,3.674,0,0,1-2.6-1.081l0-.005a3.677,3.677,0,0,1-1.081-2.6v-18.6a3.674,3.674,0,0,1,1.081-2.6l0-.005A3.678,3.678,0,0,1,9117.8,6239.585Zm1.747,10.9h.688a1.381,1.381,0,0,1,1.177,1.515h0a1.382,1.382,0,0,1-1.177,1.514h-.688a1.381,1.381,0,0,1-1.175-1.514h0A1.382,1.382,0,0,1,9119.548,6250.486Zm0,3.9h.688a1.38,1.38,0,0,1,1.177,1.514h0a1.382,1.382,0,0,1-1.177,1.515h-.688a1.381,1.381,0,0,1-1.175-1.515h0A1.381,1.381,0,0,1,9119.548,6254.384Zm0,3.9h.688a1.381,1.381,0,0,1,1.177,1.514h0a1.382,1.382,0,0,1-1.177,1.514h-.688a1.381,1.381,0,0,1-1.175-1.514h0A1.381,1.381,0,0,1,9119.548,6258.28Zm4.943,0h.688a1.382,1.382,0,0,1,1.178,1.514h0a1.382,1.382,0,0,1-1.178,1.514h-.687a1.382,1.382,0,0,1-1.177-1.514h0A1.382,1.382,0,0,1,9124.491,6258.28Zm0-3.9h.688a1.382,1.382,0,0,1,1.178,1.514h0a1.383,1.383,0,0,1-1.178,1.515h-.687a1.383,1.383,0,0,1-1.177-1.515h0A1.382,1.382,0,0,1,9124.491,6254.384Zm0-3.9h.688a1.383,1.383,0,0,1,1.178,1.515h0a1.382,1.382,0,0,1-1.178,1.514h-.687a1.382,1.382,0,0,1-1.177-1.514h0A1.383,1.383,0,0,1,9124.491,6250.486Zm4.515,0h.688a1.383,1.383,0,0,1,1.177,1.515h0a1.382,1.382,0,0,1-1.177,1.514h-.688a1.382,1.382,0,0,1-1.176-1.514h0A1.382,1.382,0,0,1,9129.006,6250.486Zm0,3.9h.688a1.382,1.382,0,0,1,1.177,1.514h0a1.382,1.382,0,0,1-1.177,1.515h-.688a1.382,1.382,0,0,1-1.176-1.515h0A1.381,1.381,0,0,1,9129.006,6254.384Zm-32.294-40.556h23.044a1.321,1.321,0,0,1,1.317,1.317h0a1.322,1.322,0,0,1-1.317,1.318h-23.044a1.322,1.322,0,0,1-1.317-1.318h0A1.321,1.321,0,0,1,9096.712,6213.828Zm0-4.413h23.044a1.321,1.321,0,0,1,1.317,1.317h0a1.321,1.321,0,0,1-1.317,1.317h-23.044a1.321,1.321,0,0,1-1.317-1.317h0A1.321,1.321,0,0,1,9096.712,6209.415Zm-.933,43.745a1.321,1.321,0,0,0-1.263,1.316h0a1.322,1.322,0,0,0,1.317,1.317h.771a1.321,1.321,0,0,0,1.317-1.317h0v-.01C9097.922,6253.04,9096.617,6253.08,9095.779,6253.16Zm.055-3.934h.771a1.322,1.322,0,0,1,1.317,1.318h0a1.322,1.322,0,0,1-1.317,1.317h-.771a1.321,1.321,0,0,1-1.317-1.317h0A1.321,1.321,0,0,1,9095.834,6249.226Zm0-3.932h.771a1.321,1.321,0,0,1,1.317,1.317h0a1.322,1.322,0,0,1-1.317,1.318h-.771a1.322,1.322,0,0,1-1.317-1.318h0A1.321,1.321,0,0,1,9095.834,6245.294Zm5.395,0h9.23a1.321,1.321,0,0,1,1.317,1.317h0a1.322,1.322,0,0,1-1.317,1.318h-9.23a1.321,1.321,0,0,1-1.316-1.318h0A1.321,1.321,0,0,1,9101.229,6245.294Zm0,3.932h9.23a1.322,1.322,0,0,1,1.317,1.318h0a1.322,1.322,0,0,1-1.317,1.317h-9.23a1.321,1.321,0,0,1-1.316-1.317h0A1.321,1.321,0,0,1,9101.229,6249.226Zm0,3.933h9.23a1.322,1.322,0,0,1,1.317,1.317h0a1.322,1.322,0,0,1-1.317,1.317h-9.23a1.321,1.321,0,0,1-1.316-1.317h0A1.321,1.321,0,0,1,9101.229,6253.158Zm10.5-26.155h8.029a1.322,1.322,0,0,1,1.317,1.318h0a1.321,1.321,0,0,1-1.317,1.317h-8.029a1.32,1.32,0,0,1-1.316-1.317h0A1.321,1.321,0,0,1,9111.727,6227Zm-.239-4.413h8.269a1.322,1.322,0,0,1,1.317,1.318h0a1.321,1.321,0,0,1-1.317,1.317h-8.269a1.321,1.321,0,0,1-1.317-1.317h0A1.321,1.321,0,0,1,9111.487,6222.591Zm-5.4-4.412h13.667a1.321,1.321,0,0,1,1.317,1.317h0a1.321,1.321,0,0,1-1.317,1.317h-13.667a1.321,1.321,0,0,1-1.317-1.317h0A1.321,1.321,0,0,1,9106.089,6218.179Zm4.344,41.22a1.489,1.489,0,0,1,0,2.977h-14.37a7.89,7.89,0,0,1-5.585-2.323h0a7.889,7.889,0,0,1-2.323-5.59v-8.655a1.488,1.488,0,0,1,2.977,0v8.655a4.92,4.92,0,0,0,1.451,3.485l0,0a4.927,4.927,0,0,0,3.488,1.448Zm-25.992-54.8a1.71,1.71,0,0,1-.22-.018c-.08,0-.161-.007-.242-.007h-.737a4.444,4.444,0,0,0-3.2,1.378,4.837,4.837,0,0,0-1.349,3.37V6211h9.828v-1.67a4.838,4.838,0,0,0-1.349-3.37A4.469,4.469,0,0,0,9084.44,6204.6Zm9.958,32.384a5.288,5.288,0,1,1,5.288-5.288A5.294,5.294,0,0,1,9094.4,6236.987Zm0-9.15a3.863,3.863,0,1,0,3.863,3.863A3.867,3.867,0,0,0,9094.4,6227.836Zm.763,16.014h-1.525a2.24,2.24,0,0,1-2.237-2.237v-.516a9.91,9.91,0,0,1-1.522-.632l-.366.366a2.238,2.238,0,0,1-3.164,0l-1.078-1.078a2.238,2.238,0,0,1,0-3.165l.365-.366a10.011,10.011,0,0,1-.632-1.523h-.517a2.24,2.24,0,0,1-2.236-2.237v-1.525a2.24,2.24,0,0,1,2.236-2.237H9085a10.017,10.017,0,0,1,.632-1.523l-.365-.366a2.237,2.237,0,0,1,0-3.164l1.078-1.078a2.237,2.237,0,0,1,3.164,0l.366.365a9.908,9.908,0,0,1,1.522-.632v-.516a2.24,2.24,0,0,1,2.238-2.237h1.524a2.239,2.239,0,0,1,2.237,2.237v.516a9.878,9.878,0,0,1,1.523.632l.365-.365a2.238,2.238,0,0,1,3.165,0l1.077,1.078a2.237,2.237,0,0,1,0,3.164l-.365.366a9.727,9.727,0,0,1,.632,1.523h.517a2.239,2.239,0,0,1,2.236,2.237v1.525a2.239,2.239,0,0,1-2.236,2.237h-.517a9.722,9.722,0,0,1-.632,1.523l.365.366a2.237,2.237,0,0,1,0,3.164l-1.078,1.078a2.238,2.238,0,0,1-3.164,0l-.365-.365a9.88,9.88,0,0,1-1.523.632v.516A2.239,2.239,0,0,1,9095.161,6243.85Zm-5.048-4.88a8.419,8.419,0,0,0,2.176.9.712.712,0,0,1,.535.689v1.051a.813.813,0,0,0,.813.813h1.524a.814.814,0,0,0,.813-.812v-1.051a.711.711,0,0,1,.534-.689,8.413,8.413,0,0,0,2.175-.9.712.712,0,0,1,.867.109l.743.744a.814.814,0,0,0,1.15,0l1.078-1.079a.811.811,0,0,0,0-1.149l-.744-.746a.712.712,0,0,1-.109-.866,8.41,8.41,0,0,0,.9-2.175.712.712,0,0,1,.69-.534h1.05a.814.814,0,0,0,.813-.813v-1.525a.814.814,0,0,0-.813-.813h-1.05a.712.712,0,0,1-.69-.534,8.428,8.428,0,0,0-.9-2.175.712.712,0,0,1,.109-.866l.744-.744a.811.811,0,0,0,0-1.149l-1.078-1.08a.813.813,0,0,0-1.149,0l-.744.745a.712.712,0,0,1-.867.109,8.379,8.379,0,0,0-2.175-.9.711.711,0,0,1-.534-.689v-1.052a.814.814,0,0,0-.813-.812h-1.524a.814.814,0,0,0-.812.813v1.051a.713.713,0,0,1-.535.69,8.372,8.372,0,0,0-2.176.9.71.71,0,0,1-.865-.109l-.745-.745a.814.814,0,0,0-1.15,0l-1.078,1.079a.814.814,0,0,0,0,1.149l.746.745a.711.711,0,0,1,.108.866,8.425,8.425,0,0,0-.9,2.175.712.712,0,0,1-.688.534h-1.053a.814.814,0,0,0-.812.813v1.524a.814.814,0,0,0,.813.813h1.052a.713.713,0,0,1,.689.534,8.418,8.418,0,0,0,.9,2.175.712.712,0,0,1-.108.866l-.746.745a.814.814,0,0,0,0,1.149l1.079,1.079a.814.814,0,0,0,1.15,0l.745-.745a.712.712,0,0,1,.865-.109Zm15.705,36.053v5.366h6.084v-5.366Z" transform="translate(-8366.817 -5221.451)" fill="#fff"/></g></svg>